<?xml version="1.0" encoding="UTF-8"?>
<svg xmlns="http://www.w3.org/2000/svg" xmlns:xlink="http://www.w3.org/1999/xlink" viewBox="0 0 1000 1000">
  <defs>
    <style>
      .cls-1 {
        fill: url(#Degradado_sin_nombre_25);
        filter: url(#drop-shadow-2);
      }

      .cls-2 {
        fill: url(#Degradado_sin_nombre_25-2);
      }

      .cls-2, .cls-3, .cls-4, .cls-5, .cls-6, .cls-7, .cls-8 {
        opacity: .3;
      }

      .cls-2, .cls-3, .cls-4, .cls-5, .cls-6, .cls-9 {
        mix-blend-mode: multiply;
      }

      .cls-3 {
        fill: url(#Degradado_sin_nombre_25-4);
      }

      .cls-10 {
        fill: url(#Degradado_sin_nombre_80);
        filter: url(#drop-shadow-7);
      }

      .cls-11, .cls-7 {
        fill: #fff;
      }

      .cls-4 {
        fill: url(#Degradado_sin_nombre_37-2);
      }

      .cls-12 {
        fill: url(#Degradado_sin_nombre_10);
        filter: url(#drop-shadow-3);
      }

      .cls-13 {
        fill: url(#Degradado_sin_nombre_37);
        filter: url(#drop-shadow-4);
      }

      .cls-5 {
        fill: url(#Degradado_sin_nombre_25-5);
      }

      .cls-6 {
        fill: url(#Degradado_sin_nombre_25-3);
      }

      .cls-14, .cls-7, .cls-8 {
        mix-blend-mode: overlay;
      }

      .cls-14, .cls-9 {
        opacity: .5;
      }

      .cls-15 {
        isolation: isolate;
      }

      .cls-16 {
        fill: url(#Degradado_sin_nombre_2);
        filter: url(#drop-shadow-6);
      }

      .cls-17 {
        fill: url(#linear-gradient);
      }

      .cls-9 {
        fill: url(#Degradado_sin_nombre_13);
      }

      .cls-18 {
        fill: url(#Degradado_sin_nombre_10-2);
        filter: url(#drop-shadow-5);
      }
    </style>
    <linearGradient id="linear-gradient" x1="-10" y1="500" x2="1010" y2="500" gradientUnits="userSpaceOnUse">
      <stop offset="0" stop-color="#313d49"/>
      <stop offset=".8" stop-color="#171b2b"/>
      <stop offset="1" stop-color="#101324"/>
    </linearGradient>
    <linearGradient id="Degradado_sin_nombre_25" data-name="Degradado sin nombre 25" x1="319.42" y1="386.98" x2="351.92" y2="781.69" gradientUnits="userSpaceOnUse">
      <stop offset="0" stop-color="#fee179"/>
      <stop offset=".47" stop-color="#f48e39"/>
      <stop offset="1" stop-color="#dd393a"/>
    </linearGradient>
    <filter id="drop-shadow-2" x="108.02" y="387.83" width="476.16" height="439.92" filterUnits="userSpaceOnUse">
      <feOffset dx="6.36" dy="6.36"/>
      <feGaussianBlur result="blur" stdDeviation="4.77"/>
      <feFlood flood-color="#000" flood-opacity=".4"/>
      <feComposite in2="blur" operator="in"/>
      <feComposite in="SourceGraphic"/>
    </filter>
    <linearGradient id="Degradado_sin_nombre_25-2" data-name="Degradado sin nombre 25" x1="154.41" y1="400.57" x2="186.92" y2="795.28" xlink:href="#Degradado_sin_nombre_25"/>
    <linearGradient id="Degradado_sin_nombre_25-3" data-name="Degradado sin nombre 25" x1="370.14" y1="382.8" x2="402.64" y2="777.52" xlink:href="#Degradado_sin_nombre_25"/>
    <linearGradient id="Degradado_sin_nombre_25-4" data-name="Degradado sin nombre 25" x1="340" y1="385.28" x2="372.51" y2="780" xlink:href="#Degradado_sin_nombre_25"/>
    <linearGradient id="Degradado_sin_nombre_10" data-name="Degradado sin nombre 10" x1="201.26" y1="259.45" x2="506.78" y2="650.28" gradientUnits="userSpaceOnUse">
      <stop offset="0" stop-color="#fee179"/>
      <stop offset="1" stop-color="#f48e39"/>
    </linearGradient>
    <filter id="drop-shadow-3" x="97.22" y="302.39" width="677.28" height="465.6" filterUnits="userSpaceOnUse">
      <feOffset dx="6.36" dy="6.36"/>
      <feGaussianBlur result="blur-2" stdDeviation="4.77"/>
      <feFlood flood-color="#000" flood-opacity=".4"/>
      <feComposite in2="blur-2" operator="in"/>
      <feComposite in="SourceGraphic"/>
    </filter>
    <linearGradient id="Degradado_sin_nombre_37" data-name="Degradado sin nombre 37" x1="653.79" y1="227.93" x2="578.9" y2="820.22" gradientUnits="userSpaceOnUse">
      <stop offset="0" stop-color="#2fa27b"/>
      <stop offset=".47" stop-color="#ee7349"/>
      <stop offset="1" stop-color="#a01f58"/>
    </linearGradient>
    <filter id="drop-shadow-4" x="259.94" y="240.23" width="699.36" height="609.36" filterUnits="userSpaceOnUse">
      <feOffset dx="6.36" dy="6.36"/>
      <feGaussianBlur result="blur-3" stdDeviation="4.77"/>
      <feFlood flood-color="#000" flood-opacity=".4"/>
      <feComposite in2="blur-3" operator="in"/>
      <feComposite in="SourceGraphic"/>
    </filter>
    <linearGradient id="Degradado_sin_nombre_37-2" data-name="Degradado sin nombre 37" x1="626.44" y1="224.47" x2="551.55" y2="816.76" xlink:href="#Degradado_sin_nombre_37"/>
    <linearGradient id="Degradado_sin_nombre_25-5" data-name="Degradado sin nombre 25" x1="708.94" y1="234.91" x2="634.05" y2="827.19" xlink:href="#Degradado_sin_nombre_25"/>
    <linearGradient id="Degradado_sin_nombre_10-2" data-name="Degradado sin nombre 10" x1="794.02" y1="473.75" x2="587.65" y2="823.09" xlink:href="#Degradado_sin_nombre_10"/>
    <filter id="drop-shadow-5" x="523.46" y="457.67" width="305.76" height="390.72" filterUnits="userSpaceOnUse">
      <feOffset dx="6.36" dy="6.36"/>
      <feGaussianBlur result="blur-4" stdDeviation="4.77"/>
      <feFlood flood-color="#000" flood-opacity=".4"/>
      <feComposite in2="blur-4" operator="in"/>
      <feComposite in="SourceGraphic"/>
    </filter>
    <linearGradient id="Degradado_sin_nombre_2" data-name="Degradado sin nombre 2" x1="79.79" y1="172.39" x2="120.54" y2="302.66" gradientUnits="userSpaceOnUse">
      <stop offset="0" stop-color="#8db8ef"/>
      <stop offset=".73" stop-color="#5479bd"/>
      <stop offset="1" stop-color="#624f8f"/>
    </linearGradient>
    <filter id="drop-shadow-6" x="53.54" y="163.43" width="110.88" height="176.16" filterUnits="userSpaceOnUse">
      <feOffset dx="6.36" dy="6.36"/>
      <feGaussianBlur result="blur-5" stdDeviation="4.77"/>
      <feFlood flood-color="#000" flood-opacity=".4"/>
      <feComposite in2="blur-5" operator="in"/>
      <feComposite in="SourceGraphic"/>
    </filter>
    <linearGradient id="Degradado_sin_nombre_13" data-name="Degradado sin nombre 13" x1="118.09" y1="304.83" x2="111.87" y2="280.58" gradientUnits="userSpaceOnUse">
      <stop offset="0" stop-color="#5479bd"/>
      <stop offset="1" stop-color="#624f8f" stop-opacity="0"/>
    </linearGradient>
    <linearGradient id="Degradado_sin_nombre_80" data-name="Degradado sin nombre 80" x1="119.48" y1="305.31" x2="123.86" y2="318.81" gradientUnits="userSpaceOnUse">
      <stop offset="0" stop-color="#8db8ef"/>
      <stop offset=".39" stop-color="#5479bd"/>
      <stop offset="1" stop-color="#624f8f"/>
    </linearGradient>
    <filter id="drop-shadow-7" x="84.5" y="290.63" width="87.6" height="56.64" filterUnits="userSpaceOnUse">
      <feOffset dx="6.36" dy="6.36"/>
      <feGaussianBlur result="blur-6" stdDeviation="4.77"/>
      <feFlood flood-color="#000" flood-opacity=".4"/>
      <feComposite in2="blur-6" operator="in"/>
      <feComposite in="SourceGraphic"/>
    </filter>
  </defs>
  <g class="cls-15">
    <g id="BACKGROUND">
      <rect class="cls-17" x="-10" y="-10" width="1020" height="1020"/>
    </g>
    <g id="TEXTS">
      <g>
        <path class="cls-1" d="M268.11,790.44c-5.67-3.29-11.18-6.74-16.54-10.34-7.3-4.89-22.84-109.33-29.56-114.73-3.49-2.81,1.63,93.6-1.71,90.66-46.21-40.66-77.33-93.15-92.77-147.93-1.59-5.63,16.72-101.02,15.46-106.69-1.34-6.03-22.21,77.65-23.17,71.6-9.11-57.55-1.13-115.39,24.6-162.79,0,0,68.84-40.15,137.47,13.6,3.65,2.86-52.33,1.55-48.69,4.96,2.56,2.4,64.72,9.36,67.27,12.04,10.59,11.19,21.03,24.95,31.05,41.79,80.18,134.75,139.58,139.95,186.72,149.04,47.14,9.1,44.92,107.1,44.92,107.1l-223.47,67.93-71.57-16.23Z"/>
        <g class="cls-8">
          <path class="cls-11" d="M241.62,436.82c2.34,2.19,54.56,8.2,65.37,11.27-2.17-2.53-4.34-4.97-6.52-7.27-1.35-1.43-19.63-4.07-36.8-6.59-12.26.44-23.75,1-22.04,2.6Z"/>
          <path class="cls-11" d="M526.66,639.69c5.25,1.01,9.86,3.18,13.95,6.14-5.83-7.19-13.14-12.41-22.37-14.19-30.77-5.94-66.77-10.24-110.36-49.97,47.4,47.23,86.05,51.71,118.78,58.02Z"/>
          <path class="cls-11" d="M135.95,616.14c-1.59-5.63,16.72-101.02,15.46-106.69-.97-4.39-12.28,38.7-18.75,60.18-3.21,19.53-5.77,36.2-5.14,38.46,14.88,52.8,44.36,103.43,87.84,143.42-38.87-38.64-65.52-86.06-79.42-135.38Z"/>
          <path class="cls-11" d="M152.85,418.26s62.34-36.3,127.51,6.5c1.4-.26,2.03-.57,1.54-.95-68.63-53.75-137.47-13.6-137.47-13.6-25.74,47.41-33.72,105.25-24.6,162.79.3,1.92,2.61-5.2,5.67-15.61-3.81-49.55,5.15-98.22,27.35-139.13Z"/>
          <path class="cls-11" d="M230.43,673.42c-.91-.73-1.23,5.32-1.28,14.56,7.46,32.49,17.11,88.57,22.41,92.12,1.94,1.3,4.01,2.48,5.99,3.74-7.9-20.55-21.09-105.57-27.13-110.43Z"/>
        </g>
        <path class="cls-2" d="M129.86,615.83c16.12,51.98,46.42,101.47,90.45,140.2,2.09,1.84.86-35.23.51-62.54-36.22-17.42-68.2-44.61-90.96-77.66Z"/>
        <path class="cls-6" d="M518.24,631.64c-4.94-.95-10.02-1.87-15.23-2.89-34.13,64.15-125.82,85.9-193.25,85.83-26.78-.03-53.39-5.9-78.33-16.35,7.05,32.81,15.36,78.66,20.14,81.86,5.36,3.59,10.87,7.04,16.54,10.34l71.57,16.23,223.47-67.93s2.23-98-44.92-107.1Z"/>
        <path class="cls-3" d="M559.2,692.8c-6.71-.67-13.38-1.74-20.07-2.55-10.13-1.21-20.28-2.27-30.42-3.45-19.72-2.31-39.45-5.13-58.59-10.55-1.52-.43-2.47-2.77-1.03-3.89,2.58-2.01,5.37-3.72,8.1-5.51-27.46-4.05-55.45-5.91-80.86-18.1-1.33-.64-1.51-2.7-.47-3.66,6.16-5.72,15.45-4.44,23.38-5.96-3.43-3.61-8.78-5.84-13.06-7.69-5.99-2.6-12.19-4.67-18.29-6.99-5.95-2.26-11.56-5.11-17.13-8.18-15.17-8.38-29.89-18.39-41.89-30.98-1.14-1.2-.75-3.52,1.03-3.89,9.74-2.06,19.84.76,29.54-.89-8.52-12.99-23.07-21.7-35.2-30.81-13.92-10.45-28.22-23.21-36.24-38.9-.78-1.52.16-3.54,2.01-3.5,4.31.08,8.57.87,12.86.92-5.3-11.2-17.31-18.53-27.31-24.97-11.48-7.4-24.13-14.66-31.97-26.2-1.22-1.79.79-3.82,2.63-3.42,1.51.33,3.27-.32,4.98-.9-2.01-4.73-6.58-8.4-10.58-11.32-10.31-7.52-22.04-12.68-33.14-18.85-7.35-4.09-14.3-8.98-21.28-13.67-2.49-1.67-4.96-3.35-7.44-5.03-5.26,1.92-9.22,3.75-11.62,4.95.56,14.15,2.72,28.13,5,42.1.97,5.93,1.9,11.76,2.24,17.75.27,4.82.57,10.62,4.33,14.15,1.46,1.37,3.2,2.84,4.81,3.99,1.8,1.29,3.92,2.23,5.14,4.15,2.29,3.6,2.82,8.55,3.41,12.68.67,4.74,1.13,9.44,2.11,14.13,1.4,6.74,2.6,13.52,3.85,20.29,2.2,11.84,4.69,23.64,8.56,35.05,3.18-5.94,2.98-13.51,5.59-19.69.77-1.82,3.07-2.37,4.25-.56,9.87,15.02,14.22,32.79,20.85,49.31,3.69,9.18,8.71,17.78,13.8,26.25,4.16,6.92,8.65,13.63,13.37,20.17.58-5,.62-10.04.62-15.09,0-1.62,2.03-3.09,3.5-2.01,7.15,5.25,12.04,12.68,16.54,20.2,4.16,6.95,8.29,13.67,13.18,20.13,5.46,7.21,10.94,14.39,16.66,21.4,10.88,13.33,22.65,26.27,36.56,36.51,1.76-4.39,1.03-9.55.24-14.11-.96-5.52-2.45-11.04-2.53-16.68-.03-1.87,1.97-2.76,3.5-2.01,3.66,1.8,7.14,3.9,10.47,6.25,13.53,9.56,24.37,22.24,36.77,33.12,13.58,11.91,29.48,19.85,46.49,25.66,8.65,2.95,17.43,5.48,26.15,8.2,1.2.37,2.39.73,3.59,1.11l106.98-32.52s.49-21.89-3.96-45.94Z"/>
        <path class="cls-12" d="M141.27,310.53c18.83,66.77,46.74,131.08,81.49,191.1,75.03,129.9,193.04,236.64,350.47,236.89,61.98.39,122.97-14.62,180.36-37.64-60.6,27.49-126.68,46.1-193.71,46.02-155.74,1.68-281.38-104.88-360.99-230.58-37.84-59.03-68.71-122.55-91.43-188.91,0,0-1.09-3.32-1.09-3.32l-1.1-3.5,35.99-10.06h0Z"/>
        <path class="cls-13" d="M868.3,657.44c-63.97,93.37-162.55,142.01-266.14,161.21-23.42,4.35-47.12,7.18-70.73,8.66-97.27,6.22-193.07-10.21-263.32-36.87,102.99-17.95,221.28-79.36,286.9-224.31,2.82-6.23,27.63,70.43,30.25,63.88,2.3-5.74-17.57-94.65-15.43-100.64,1.52-4.26,52.83,96.02,54.49,91.8,2.23-5.65-45.13-115.76-42.67-121.31,48.78-109.95,142.4-201.7,210.09-236.53,4.51-2.32,1.9,144.79,6.16,142.99,3.23-1.37,13.39-151.77,16.46-152.83,12.62-4.36,23.76-6.06,32.78-4.75,51,7.41,127.48,146.08,71.94,308.64-2.14,6.25-67.06,55.91-69.6,62.23-2.59,6.46,57.19-30.42,54.17-23.91-9.49,20.41-21.18,41.06-35.34,61.74Z"/>
        <g class="cls-8">
          <path class="cls-11" d="M858.83,628.97c-1.59,3.97,20.34-8.41,36.81-17.05,2.82-5.42,5.5-10.83,8-16.21.98-2.11-4.65.35-12.6,4.4-15.87,13.2-31.02,25.88-32.22,28.87Z"/>
          <path class="cls-11" d="M633.68,630.53c2.23-5.65-45.13-115.76-42.67-121.31,47.02-105.99,135.69-195.04,202.65-232.52-.44-8.61-1.05-13.81-1.92-13.36-67.69,34.83-161.31,126.58-210.09,236.53-2.15,4.85,33.69,89.43,41.32,114.55,5.96,10.42,10.24,17.28,10.7,16.11Z"/>
          <path class="cls-11" d="M823.71,262.84c12.62-4.36,23.76-6.06,32.78-4.75,8.61,1.25,17.95,6.33,27.26,14.55-12.3-13.81-25.1-22.23-36.61-23.9-9.02-1.31-20.16.39-32.78,4.75-1.82.63-6.13,53.72-10.01,97.15.42,33.92,16.3-86.73,19.36-87.79Z"/>
          <path class="cls-11" d="M562.61,579.18c-3.76-8.99-6.73-14.98-7.6-13.05-65.62,144.94-183.91,206.36-286.9,224.31,6.62,2.51,13.53,4.9,20.58,7.22,99.35-20.19,210.38-81.4,273.93-218.47Z"/>
          <path class="cls-11" d="M594.62,639.36c2.05-5.13-13.57-76.6-15.4-96.06-5.29-9.18-8.99-15.03-9.38-13.94-1.77,4.96,11.57,66.89,14.87,91.2,4.86,12.09,8.93,21.24,9.91,18.79Z"/>
        </g>
        <path class="cls-4" d="M830.94,690.16c-31.97,16.93-90.19,29.93-112.27.49-48.66,63.06-148.97,116.74-210.62,43.68-14.38-17.05-22.17-37.37-24.9-58.85-63.71,68.62-143.1,102.42-215.04,114.95,70.25,26.67,166.05,43.09,263.32,36.87,23.61-1.48,47.3-4.31,70.73-8.66,97.38-18.04,190.31-62.13,254.25-144.9-7.95,6.09-16.41,11.61-25.46,16.41Z"/>
        <path class="cls-5" d="M684.13,796.36c11.67-8.88,22.76-18.49,33.02-28.76,5.73-5.74,11.21-11.72,16.43-17.93,5.12-6.08,9.7-12.55,14.67-18.74,4.49-5.58,9.78-10.47,14.53-15.83,3.75-4.23,7.46-8.89,9.41-14.25-6.99,1.53-13.59,4.81-20.94,4.27-1.6-.12-2.54-1.39-2.24-2.95,1.66-8.89,7.09-16.83,12.35-23.98,5.52-7.51,11.58-14.6,17.27-21.97,5.92-7.67,10.45-15.61,14.68-24.31,5.35-11.02,10.49-22.13,15.57-33.27,2.38-5.22,4.72-10.46,7.18-15.64,1.7-3.58,3.25-7.18,4.06-10.99-2.05,1.05-4.2,1.9-6.39,2.93-1.91.91-3.77-.57-3.42-2.63,3.05-18.02,4.5-36.39,3.96-54.66-.49-16.73-2.58-33.99-8.76-49.68-13.76,19.71-19.61,45.96-40.98,59.39-1.39.88-2.88-.06-3.42-1.39-.6-1.49-1.54-2.79-2.47-4.1-7.64,13.44-13.75,27.69-20.16,41.74-8.7,19.06-17.42,38.36-27.97,56.48-5.38,9.24-11.34,18.29-18.56,26.21-5.95,6.53-13.02,12.43-21.54,15.2-.71.23-1.78,0-2.27-.6-3.54-4.45-5.3-10.04-8.59-14.61-5.67,9.21-11.44,18.35-17.29,27.44-4.38,6.81-8.77,13.57-12.78,20.61-3.59,6.31-7.15,12.64-11.08,18.74-7.32,11.38-16.33,23.37-29.45,28.27-.94.35-2.16-.24-2.63-1.07-2.95-5.23-5.56-10.77-9.4-15.41-6.72,6.86-13.14,14.01-19.36,21.32-11.22,13.16-22.43,26.37-31.84,40.9-2.84,4.39-6.28,10.14-11.68,11.64-5.51,1.52-10.31-2.44-13.87-6.36-6.6,5.82-9.68,15.02-13.03,22.86-1.97,4.6-4.16,9.24-7.06,13.31,16.99.25,34.14-.11,51.36-1.21,23.61-1.48,47.3-4.31,70.73-8.66,27.89-5.17,55.39-12.55,81.97-22.29Z"/>
        <path class="cls-18" d="M808.25,471.26c-28.03,132.66-97.37,264.76-206.09,347.39-23.42,4.35-47.12,7.18-70.73,8.66,129.29-63.61,214.44-194.12,259.11-328.24,3.22-9.87,6.28-19.9,8.85-29.87.6-2.34,2.9-3.81,5.27-3.34h0c2.49.49,4.11,2.92,3.59,5.4Z"/>
        <g>
          <path class="cls-16" d="M136.03,226c-21.51-6.76-41.27-38.74-50.62-53.84-.35-.57-1.15-.79-2.09-.78l15.95,55.68c1.19,4.15,4.47,7.41,8.66,8.46,5.56,1.39,10.19,5.79,11.53,11.88,1.7,7.75-2.89,15.77-10.42,18.24-8.51,2.79-17.55-2.05-20-10.58-1.58-5.51,0-11.18,3.67-15.07,3.01-3.19,4.21-7.68,3-11.9l-15.95-55.68c-.8.49-1.36,1.1-1.36,1.77.07,17.76.24,55.35-14.44,72.47-3.08,3.59-3.26,8.84-.16,12.42,10.05,11.6,27.28,27.93,36.36,59.63l21.65-6.2,21.65-6.2c-9.08-31.7-3.11-54.68-.72-69.84.73-4.67-2.2-9.03-6.71-10.45Z"/>
          <g class="cls-14">
            <path class="cls-11" d="M139.49,229.46c.75.23,1.43.58,2.08.96-1.19-2.05-3.13-3.67-5.55-4.42-6.9-2.17-13.61-6.94-19.86-12.9,7.2,7.56,15.13,13.8,23.32,16.37Z"/>
            <path class="cls-11" d="M112.5,269.1c7.53-2.47,12.12-10.49,10.42-18.24-.86-3.94-3.12-7.15-6.09-9.32,1.23,1.69,2.15,3.66,2.63,5.85,1.7,7.75-2.89,15.77-10.42,18.24-5.01,1.64-10.17.59-14.09-2.25,3.88,5.34,10.86,7.92,17.56,5.72Z"/>
            <path class="cls-11" d="M104.3,233.82c-.66-1.02-1.22-2.11-1.56-3.3l-15.95-55.68c.12,0,.2.04.31.04-.59-.95-1.16-1.87-1.69-2.73-.35-.57-1.15-.79-2.09-.78l15.95,55.68c.81,2.83,2.64,5.19,5.03,6.77Z"/>
            <path class="cls-11" d="M67.26,262.52c-3.1-3.57-2.91-8.83.16-12.41,14.12-16.48,14.49-51.85,14.44-70.33l-2.11-7.38c-.8.49-1.36,1.1-1.36,1.77.07,17.76.24,55.35-14.44,72.47-3.08,3.59-3.26,8.84-.16,12.42,10.05,11.6,27.28,27.93,36.36,59.63l2.19-.63c-9.34-29.01-25.48-44.45-35.09-55.54Z"/>
          </g>
          <path class="cls-9" d="M138.99,262.58c-11.63,10.4-26.8,16.88-43.14,16.88-5.72,0-11.26-.85-16.59-2.31,7.72,10.1,15.67,23.25,20.9,41.53l43.3-12.4c-4.88-17.05-5.4-31.56-4.47-43.7Z"/>
          <path class="cls-10" d="M145.54,313.69l-43.22,12.38c-4.08,1.17-8.34-1.19-9.51-5.28h0c-1.17-4.08,1.19-8.34,5.28-9.51l43.21-12.38c4.08-1.17,8.34,1.19,9.51,5.28h0c1.17,4.08-1.19,8.34-5.28,9.51Z"/>
          <path class="cls-7" d="M95.24,322.24c-1.17-4.08,1.19-8.34,5.28-9.51l43.21-12.38c1.63-.47,3.28-.35,4.76.19-1.9-1.67-4.58-2.39-7.2-1.64l-43.21,12.38c-4.08,1.17-6.45,5.43-5.28,9.51.7,2.45,2.53,4.26,4.75,5.08-1.07-.94-1.9-2.17-2.32-3.64Z"/>
        </g>
      </g>
    </g>
  </g>
</svg>