<?xml version="1.0" encoding="UTF-8"?>
<svg id="Layer_1" xmlns="http://www.w3.org/2000/svg" version="1.1" viewBox="0 0 48 48">
  <!-- Generator: Adobe Illustrator 30.0.0, SVG Export Plug-In . SVG Version: 2.1.1 Build 123)  -->
  <defs>
    <style>
      .st0 {
        fill: #0288d1;
      }

      .st1 {
        fill: #fff;
      }
    </style>
  </defs>
  <path class="st0" d="M48.7-.7v49.5H-.7V-.7h49.5Z"/>
  <path class="st1" d="M12,19h5v17h-5v-17ZM14.5,17h0c-1.5,0-2.5-1.1-2.5-2.5s1-2.5,2.5-2.5,2.5,1.1,2.5,2.5c0,1.4-1,2.5-2.5,2.5ZM36,36h-5v-9.1c0-2.2-1.2-3.7-3.2-3.7s-2.3,1-2.7,2c-.1.3-.1,1.3-.1,1.8v9h-5v-17h5v2.6c.7-1.1,1.9-2.6,4.7-2.6s6.3,2.2,6.3,7.3v9.7h0Z"/>
</svg>