<?xml version="1.0" encoding="UTF-8"?>
<svg xmlns="http://www.w3.org/2000/svg" version="1.1" xmlns:xlink="http://www.w3.org/1999/xlink" viewBox="0 0 551.1 413">
  <!-- Generator: Adobe Illustrator 30.0.0, SVG Export Plug-In . SVG Version: 2.1.1 Build 123)  -->
  <defs>
    <style>
      .st0 {
        fill: url(#linear-gradient2);
      }

      .st0, .st1, .st2, .st3, .st4, .st5, .st6, .st7 {
        isolation: isolate;
      }

      .st0, .st2, .st3, .st4, .st5, .st7 {
        mix-blend-mode: multiply;
      }

      .st0, .st3, .st4, .st5, .st6, .st7 {
        opacity: .3;
      }

      .st8, .st6 {
        fill: #fff;
      }

      .st9 {
        fill: url(#linear-gradient9);
      }

      .st10 {
        fill: url(#linear-gradient8);
      }

      .st11 {
        fill: url(#linear-gradient11);
      }

      .st12 {
        fill: url(#linear-gradient4);
      }

      .st13 {
        fill: url(#linear-gradient5);
      }

      .st2 {
        fill: url(#linear-gradient10);
        opacity: .5;
      }

      .st3 {
        fill: url(#linear-gradient7);
      }

      .st4 {
        fill: url(#linear-gradient1);
      }

      .st5 {
        fill: url(#linear-gradient3);
      }

      .st6 {
        mix-blend-mode: overlay;
      }

      .st14 {
        fill: url(#linear-gradient);
      }

      .st7 {
        fill: url(#linear-gradient6);
      }
    </style>
    <linearGradient id="linear-gradient" x1="162.1" y1="275.8" x2="182.5" y2="27.7" gradientTransform="translate(0 411.3) scale(1 -1)" gradientUnits="userSpaceOnUse">
      <stop offset="0" stop-color="#fee179"/>
      <stop offset=".5" stop-color="#f48e39"/>
      <stop offset="1" stop-color="#dd393a"/>
    </linearGradient>
    <linearGradient id="linear-gradient1" x1="58.4" y1="267.3" x2="78.8" y2="19.2" gradientTransform="translate(0 411.3) scale(1 -1)" gradientUnits="userSpaceOnUse">
      <stop offset="0" stop-color="#fee179"/>
      <stop offset=".5" stop-color="#f48e39"/>
      <stop offset="1" stop-color="#dd393a"/>
    </linearGradient>
    <linearGradient id="linear-gradient2" x1="193.9" y1="278.4" x2="214.4" y2="30.4" gradientTransform="translate(0 411.3) scale(1 -1)" gradientUnits="userSpaceOnUse">
      <stop offset="0" stop-color="#fee179"/>
      <stop offset=".5" stop-color="#f48e39"/>
      <stop offset="1" stop-color="#dd393a"/>
    </linearGradient>
    <linearGradient id="linear-gradient3" x1="174.9" y1="276.8" x2="195.4" y2="28.8" gradientTransform="translate(0 411.3) scale(1 -1)" gradientUnits="userSpaceOnUse">
      <stop offset="0" stop-color="#fee179"/>
      <stop offset=".5" stop-color="#f48e39"/>
      <stop offset="1" stop-color="#dd393a"/>
    </linearGradient>
    <linearGradient id="linear-gradient4" x1="87.8" y1="355.9" x2="279.8" y2="110.3" gradientTransform="translate(0 411.3) scale(1 -1)" gradientUnits="userSpaceOnUse">
      <stop offset="0" stop-color="#fee179"/>
      <stop offset="1" stop-color="#f48e39"/>
    </linearGradient>
    <linearGradient id="linear-gradient5" x1="372.2" y1="375.7" x2="325.1" y2="3.5" gradientTransform="translate(0 411.3) scale(1 -1)" gradientUnits="userSpaceOnUse">
      <stop offset="0" stop-color="#2fa27b"/>
      <stop offset=".5" stop-color="#ee7349"/>
      <stop offset="1" stop-color="#a01f58"/>
    </linearGradient>
    <linearGradient id="linear-gradient6" x1="355" y1="377.9" x2="307.9" y2="5.7" gradientTransform="translate(0 411.3) scale(1 -1)" gradientUnits="userSpaceOnUse">
      <stop offset="0" stop-color="#2fa27b"/>
      <stop offset=".5" stop-color="#ee7349"/>
      <stop offset="1" stop-color="#a01f58"/>
    </linearGradient>
    <linearGradient id="linear-gradient7" x1="406.8" y1="371.4" x2="359.8" y2="-.9" gradientTransform="translate(0 411.3) scale(1 -1)" gradientUnits="userSpaceOnUse">
      <stop offset="0" stop-color="#fee179"/>
      <stop offset=".5" stop-color="#f48e39"/>
      <stop offset="1" stop-color="#dd393a"/>
    </linearGradient>
    <linearGradient id="linear-gradient8" x1="460.3" y1="221.3" x2="330.6" y2="1.7" gradientTransform="translate(0 411.3) scale(1 -1)" gradientUnits="userSpaceOnUse">
      <stop offset="0" stop-color="#fee179"/>
      <stop offset="1" stop-color="#f48e39"/>
    </linearGradient>
    <linearGradient id="linear-gradient9" x1="11.5" y1="410.6" x2="37.1" y2="328.8" gradientTransform="translate(0 411.3) scale(1 -1)" gradientUnits="userSpaceOnUse">
      <stop offset="0" stop-color="#8db8ef"/>
      <stop offset=".7" stop-color="#5479bd"/>
      <stop offset="1" stop-color="#624f8f"/>
    </linearGradient>
    <linearGradient id="linear-gradient10" x1="35.5" y1="327.4" x2="31.6" y2="342.6" gradientTransform="translate(0 411.3) scale(1 -1)" gradientUnits="userSpaceOnUse">
      <stop offset="0" stop-color="#5479bd"/>
      <stop offset="1" stop-color="#624f8f" stop-opacity="0"/>
    </linearGradient>
    <linearGradient id="linear-gradient11" x1="36.4" y1="327.1" x2="39.2" y2="318.6" gradientTransform="translate(0 411.3) scale(1 -1)" gradientUnits="userSpaceOnUse">
      <stop offset="0" stop-color="#8db8ef"/>
      <stop offset=".4" stop-color="#5479bd"/>
      <stop offset="1" stop-color="#624f8f"/>
    </linearGradient>
  </defs>
  <g class="st1">
    <g id="Layer_1">
      <g>
        <path class="st14" d="M129.8,389.1c-3.6-2.1-7-4.2-10.4-6.5-4.6-3.1-14.4-68.7-18.6-72.1-2.2-1.8,1,58.8-1.1,57-29-25.5-48.6-58.5-58.3-93-1-3.5,10.5-63.5,9.7-67.1-.8-3.8-14,48.8-14.6,45-5.7-36.2-.7-72.5,15.5-102.3,0,0,43.3-25.2,86.4,8.5,2.3,1.8-32.9,1-30.6,3.1,1.6,1.5,40.7,5.9,42.3,7.6,6.7,7,13.2,15.7,19.5,26.3,50.4,84.7,87.7,88,117.4,93.7,29.6,5.7,28.2,67.3,28.2,67.3l-140.4,42.7-45-10.2h0Z"/>
        <path class="st8" d="M113.2,166.8c1.5,1.4,34.3,5.2,41.1,7.1-1.4-1.6-2.7-3.1-4.1-4.6-.9-.9-12.3-2.6-23.1-4.1-7.7.3-14.9.6-13.9,1.6h0Z"/>
        <path class="st8" d="M292.3,294.3c3.3.6,6.2,2,8.8,3.9-3.7-4.5-8.3-7.8-14.1-8.9-19.3-3.7-42-6.4-69.4-31.4,29.8,29.7,54.1,32.5,74.6,36.5h0Z"/>
        <path class="st8" d="M46.8,279.5c-1-3.5,10.5-63.5,9.7-67-.6-2.8-7.7,24.3-11.8,37.8-2,12.3-3.6,22.8-3.2,24.2,9.4,33.2,27.9,65,55.2,90.1-24.4-24.3-41.2-54.1-49.9-85.1Z"/>
        <path class="st8" d="M57.4,155.2s39.2-22.8,80.1,4.1c.9-.2,1.3-.4,1-.6-43.1-33.8-86.4-8.5-86.4-8.5-16.2,29.8-21.2,66.1-15.5,102.3.2,1.2,1.6-3.3,3.6-9.8-2.4-31.1,3.2-61.7,17.2-87.4h0Z"/>
        <path class="st8" d="M106.1,315.5c-.6-.5-.8,3.3-.8,9.1,4.7,20.4,10.8,55.7,14.1,57.9,1.2.8,2.5,1.6,3.8,2.3-5-12.9-13.2-66.4-17-69.4h0Z"/>
        <path class="st4" d="M42.9,279.3c10.1,32.7,29.2,63.8,56.8,88.1,1.3,1.2.5-22.1.3-39.3-22.8-11-42.9-28-57.2-48.8Z"/>
        <path class="st0" d="M287,289.3c-3.1-.6-6.3-1.2-9.6-1.8-21.5,40.3-79.1,54-121.5,53.9-16.8,0-33.6-3.7-49.2-10.3,4.4,20.6,9.7,49.4,12.7,51.4,3.4,2.3,6.8,4.4,10.4,6.5l45,10.2,140.4-42.7s1.4-61.6-28.2-67.3h0Z"/>
        <path class="st5" d="M312.7,327.7c-4.2-.4-8.4-1.1-12.6-1.6-6.4-.8-12.8-1.4-19.1-2.2-12.4-1.5-24.8-3.2-36.8-6.6-1-.3-1.5-1.7-.6-2.4,1.6-1.3,3.4-2.3,5.1-3.5-17.3-2.5-34.9-3.7-50.8-11.4-.8-.4-1-1.7-.3-2.3,3.9-3.6,9.7-2.8,14.7-3.8-2.2-2.3-5.5-3.7-8.2-4.8-3.8-1.6-7.7-2.9-11.5-4.4-3.7-1.4-7.3-3.2-10.8-5.1-9.5-5.3-18.8-11.6-26.3-19.5-.7-.8-.5-2.2.6-2.5,6.1-1.3,12.5.5,18.6-.6-5.4-8.2-14.5-13.6-22.1-19.4-8.8-6.6-17.7-14.6-22.8-24.5-.5-1,.1-2.2,1.3-2.2,2.7,0,5.4.5,8.1.6-3.3-7-10.9-11.6-17.2-15.7-7.2-4.6-15.2-9.2-20.1-16.5-.8-1.1.5-2.4,1.6-2.1.9.2,2.1-.2,3.1-.6-1.3-3-4.1-5.3-6.6-7.1-6.5-4.7-13.9-8-20.8-11.9-4.6-2.6-9-5.6-13.4-8.6-1.6-1-3.1-2.1-4.7-3.2-3.3,1.2-5.8,2.4-7.3,3.1.4,8.9,1.7,17.7,3.1,26.5.6,3.7,1.2,7.4,1.4,11.2.2,3,.4,6.7,2.7,8.9.9.9,2,1.8,3,2.5,1.1.8,2.5,1.4,3.2,2.6,1.4,2.3,1.8,5.4,2.1,8,.4,3,.7,5.9,1.3,8.9.9,4.2,1.6,8.5,2.4,12.8,1.4,7.4,2.9,14.9,5.4,22,2-3.7,1.9-8.5,3.5-12.4.5-1.1,1.9-1.5,2.7-.4,6.2,9.4,8.9,20.6,13.1,31,2.3,5.8,5.5,11.2,8.7,16.5,2.6,4.4,5.4,8.6,8.4,12.7.4-3.1.4-6.3.4-9.5s1.3-1.9,2.2-1.3c4.5,3.3,7.6,8,10.4,12.7,2.6,4.4,5.2,8.6,8.3,12.6,3.4,4.5,6.9,9,10.5,13.5,6.8,8.4,14.2,16.5,23,22.9,1.1-2.8.6-6,.1-8.9-.6-3.5-1.5-6.9-1.6-10.5,0-1.2,1.2-1.7,2.2-1.3,2.3,1.1,4.5,2.5,6.6,3.9,8.5,6,15.3,14,23.1,20.8,8.5,7.5,18.5,12.5,29.2,16.1,5.4,1.8,11,3.4,16.4,5.2.8.2,1.5.5,2.3.7l67.2-20.4s.3-13.8-2.5-28.9h0Z"/>
        <path class="st12" d="M50.1,87.5c11.8,42,29.4,82.4,51.2,120.1,47.1,81.6,121.3,148.7,220.3,148.9,39,.2,77.3-9.2,113.3-23.7-38.1,17.3-79.6,29-121.7,28.9-97.9,1.1-176.8-65.9-226.9-144.9-23.8-37.1-43.2-77-57.5-118.7l-.7-2.1-.7-2.2,22.6-6.3h0Z"/>
        <path class="st13" d="M507,305.5c-40.2,58.7-102.2,89.2-167.3,101.3-14.7,2.7-29.6,4.5-44.5,5.4-61.1,3.9-121.3-6.4-165.5-23.2,64.7-11.3,139.1-49.9,180.3-141,1.8-3.9,17.4,44.3,19,40.1,1.5-3.6-11-59.5-9.7-63.2,1-2.7,33.2,60.3,34.2,57.7,1.4-3.5-28.4-72.8-26.8-76.2,30.7-69.1,89.5-126.8,132-148.6,2.8-1.5,1.2,91,3.9,89.9,2-.9,8.4-95.4,10.3-96,7.9-2.7,14.9-3.8,20.6-3,32,4.7,80.1,91.8,45.2,194-1.3,3.9-42.1,35.1-43.7,39.1-1.6,4.1,35.9-19.1,34-15-6,12.8-13.3,25.8-22.2,38.8h0Z"/>
        <path class="st8" d="M501.1,287.6c-1,2.5,12.8-5.3,23.1-10.7,1.8-3.4,3.5-6.8,5-10.2.6-1.3-2.9.2-7.9,2.8-10,8.3-19.5,16.3-20.2,18.1h0Z"/>
        <path class="st8" d="M359.6,288.6c1.4-3.5-28.4-72.8-26.8-76.2,29.5-66.6,85.3-122.6,127.4-146.1-.3-5.4-.7-8.7-1.2-8.4-42.5,21.9-101.4,79.5-132,148.6-1.4,3,21.2,56.2,26,72,3.8,6.5,6.4,10.9,6.7,10.1h0Z"/>
        <path class="st8" d="M479,57.5c7.9-2.7,14.9-3.8,20.6-3,5.4.8,11.3,4,17.1,9.1-7.7-8.7-15.8-14-23-15-5.7-.8-12.7.2-20.6,3-1.1.4-3.8,33.8-6.3,61,.3,21.3,10.2-54.5,12.2-55.2h0Z"/>
        <path class="st8" d="M314.9,256.3c-2.4-5.6-4.2-9.4-4.8-8.2-41.2,91.1-115.6,129.7-180.3,141,4.2,1.6,8.5,3.1,12.9,4.5,62.4-12.7,132.2-51.2,172.1-137.3h0Z"/>
        <path class="st8" d="M335,294.1c1.3-3.2-8.5-48.1-9.7-60.4-3.3-5.8-5.6-9.5-5.9-8.8-1.1,3.1,7.3,42,9.4,57.3,3,7.6,5.6,13.4,6.2,11.8h0Z"/>
        <path class="st7" d="M483.5,326c-20.1,10.6-56.7,18.8-70.5.3-30.6,39.6-93.6,73.4-132.4,27.5-9-10.7-13.9-23.5-15.6-37-40,43.1-89.9,64.4-135.1,72.2,44.1,16.8,104.4,27.1,165.5,23.2,14.8-.9,29.7-2.7,44.5-5.4,61.2-11.3,119.6-39,159.8-91.1-5,3.8-10.3,7.3-16,10.3Z"/>
        <path class="st3" d="M391.3,392.8c7.3-5.6,14.3-11.6,20.8-18.1,3.6-3.6,7-7.4,10.3-11.3,3.2-3.8,6.1-7.9,9.2-11.8,2.8-3.5,6.2-6.6,9.1-10,2.4-2.7,4.7-5.6,5.9-9-4.4,1-8.5,3-13.2,2.7-1,0-1.6-.9-1.4-1.9,1-5.6,4.5-10.6,7.8-15.1,3.5-4.7,7.3-9.2,10.8-13.8,3.7-4.8,6.6-9.8,9.2-15.3,3.4-6.9,6.6-13.9,9.8-20.9,1.5-3.3,3-6.6,4.5-9.8,1.1-2.2,2-4.5,2.5-6.9-1.3.7-2.6,1.2-4,1.8-1.2.6-2.4-.4-2.2-1.6,1.9-11.3,2.8-22.9,2.5-34.4-.3-10.5-1.6-21.4-5.5-31.2-8.7,12.4-12.3,28.9-25.8,37.3-.9.5-1.8,0-2.2-.9-.4-.9-1-1.8-1.5-2.6-4.8,8.5-8.6,17.4-12.7,26.2-5.5,12-11,24.1-17.6,35.5-3.4,5.8-7.1,11.5-11.7,16.5-3.7,4.1-8.2,7.8-13.5,9.5-.5.1-1.1,0-1.4-.4-2.2-2.8-3.3-6.3-5.4-9.2-3.6,5.8-7.2,11.5-10.9,17.2-2.8,4.3-5.5,8.5-8,13-2.3,4-4.5,7.9-7,11.8-4.6,7.1-10.3,14.7-18.5,17.8-.6.2-1.4-.1-1.6-.7-1.9-3.3-3.5-6.8-5.9-9.7-4.2,4.3-8.3,8.8-12.2,13.4-7,8.3-14.1,16.6-20,25.7-1.8,2.8-4,6.4-7.3,7.3-3.5,1-6.5-1.5-8.7-4-4.1,3.7-6.1,9.4-8.2,14.4-1.2,2.9-2.6,5.8-4.4,8.4,10.7.2,21.5,0,32.3-.8,14.8-.9,29.7-2.7,44.5-5.4,17.5-3.2,34.8-7.9,51.5-14h0Z"/>
        <path class="st10" d="M469.3,188.5c-17.6,83.4-61.2,166.4-129.5,218.3-14.7,2.7-29.6,4.5-44.5,5.4,81.2-40,134.8-122,162.8-206.3,2-6.2,4-12.5,5.6-18.8.4-1.5,1.8-2.4,3.3-2.1h0c1.6.3,2.6,1.8,2.2,3.4h0Z"/>
        <path class="st9" d="M46.8,34.3C33.3,30.1,20.9,10,15,.5,14.8.1,14.3,0,13.7,0l10,35c.8,2.6,2.8,4.7,5.4,5.3,3.5.9,6.4,3.6,7.2,7.5,1.1,4.9-1.8,9.9-6.6,11.5-5.4,1.8-11-1.3-12.6-6.6-1-3.5,0-7,2.3-9.5,1.9-2,2.6-4.8,1.9-7.5L11.4.7c-.5.3-.9.7-.9,1.1,0,11.2.1,34.8-9.1,45.6-1.9,2.3-2.1,5.6-.1,7.8,6.3,7.3,17.1,17.6,22.9,37.5l13.6-3.9,13.6-3.9c-5.7-19.9-1.9-34.4-.4-43.9.5-2.9-1.4-5.7-4.2-6.6h0Z"/>
        <path class="st8" d="M49,36.5c.5.1.9.4,1.3.6-.8-1.3-2-2.3-3.5-2.8-4.3-1.4-8.6-4.4-12.5-8.1,4.5,4.8,9.5,8.7,14.7,10.3Z"/>
        <path class="st8" d="M32,61.4c4.7-1.6,7.6-6.6,6.6-11.5-.5-2.5-2-4.5-3.8-5.9.8,1.1,1.4,2.3,1.6,3.7,1.1,4.9-1.8,9.9-6.6,11.5-3.1,1-6.4.4-8.9-1.4,2.4,3.4,6.8,5,11,3.6h0Z"/>
        <path class="st8" d="M26.9,39.2c-.4-.6-.8-1.3-1-2.1L15.9,2.2c0,0,.1,0,.2,0-.4-.6-.7-1.2-1.1-1.7C14.8.1,14.3,0,13.7,0l10,35c.5,1.8,1.7,3.3,3.2,4.2h0Z"/>
        <path class="st8" d="M3.6,57.3c-1.9-2.2-1.8-5.6.1-7.8C12.6,39.1,12.8,16.9,12.8,5.3l-1.3-4.6c-.5.3-.9.7-.9,1.1,0,11.2.1,34.8-9.1,45.6-1.9,2.3-2.1,5.6-.1,7.8,6.3,7.3,17.1,17.6,22.9,37.5l1.4-.4c-5.9-18.2-16-27.9-22.1-34.9h0Z"/>
        <path class="st2" d="M48.7,57.3c-7.3,6.5-16.8,10.6-27.1,10.6s-7.1-.5-10.4-1.4c4.9,6.4,9.9,14.6,13.1,26.1l27.2-7.8c-3.1-10.7-3.4-19.8-2.8-27.5h0Z"/>
        <path class="st11" d="M52.8,89.4l-27.2,7.8c-2.6.7-5.2-.8-6-3.3h0c-.7-2.6.8-5.2,3.3-6l27.2-7.8c2.6-.7,5.2.8,6,3.3h0c.7,2.6-.8,5.2-3.3,6Z"/>
        <path class="st6" d="M21.2,94.8c-.7-2.6.8-5.2,3.3-6l27.2-7.8c1-.3,2.1-.2,3,.1-1.2-1.1-2.9-1.5-4.5-1l-27.2,7.8c-2.6.7-4.1,3.4-3.3,6,.4,1.5,1.6,2.7,3,3.2-.7-.6-1.2-1.4-1.5-2.3h0Z"/>
      </g>
    </g>
  </g>
</svg>