<?xml version="1.0" encoding="UTF-8"?>
<svg xmlns="http://www.w3.org/2000/svg" xmlns:xlink="http://www.w3.org/1999/xlink" viewBox="0 0 2000 702.77">
  <defs>
    <style>
      .cls-1 {
        fill: url(#Degradado_sin_nombre_25-2);
      }

      .cls-1, .cls-2, .cls-3, .cls-4, .cls-5, .cls-6, .cls-7 {
        opacity: .3;
      }

      .cls-1, .cls-2, .cls-3, .cls-4, .cls-5, .cls-8 {
        mix-blend-mode: multiply;
      }

      .cls-2 {
        fill: url(#Degradado_sin_nombre_25-4);
      }

      .cls-9, .cls-6 {
        fill: #fff;
      }

      .cls-3 {
        fill: url(#Degradado_sin_nombre_37-2);
      }

      .cls-10 {
        fill: url(#Degradado_sin_nombre_25);
      }

      .cls-11 {
        fill: none;
      }

      .cls-4 {
        fill: url(#Degradado_sin_nombre_25-5);
      }

      .cls-5 {
        fill: url(#Degradado_sin_nombre_25-3);
      }

      .cls-12 {
        fill: url(#Degradado_sin_nombre_2);
      }

      .cls-13, .cls-6, .cls-7 {
        mix-blend-mode: overlay;
      }

      .cls-13, .cls-8 {
        opacity: .5;
      }

      .cls-14 {
        isolation: isolate;
      }

      .cls-15 {
        fill: url(#Degradado_sin_nombre_10-2);
      }

      .cls-16 {
        fill: url(#Degradado_sin_nombre_37);
      }

      .cls-17 {
        fill: url(#Degradado_sin_nombre_10);
      }

      .cls-18 {
        fill: url(#Degradado_sin_nombre_80);
        filter: url(#drop-shadow-29);
      }

      .cls-8 {
        fill: url(#Degradado_sin_nombre_13);
      }
    </style>
    <linearGradient id="Degradado_sin_nombre_25" data-name="Degradado sin nombre 25" x1="312.05" y1="280.35" x2="332.48" y2="528.42" gradientUnits="userSpaceOnUse">
      <stop offset="0" stop-color="#fee179"/>
      <stop offset=".47" stop-color="#f48e39"/>
      <stop offset="1" stop-color="#dd393a"/>
    </linearGradient>
    <linearGradient id="Degradado_sin_nombre_25-2" data-name="Degradado sin nombre 25" x1="208.35" y1="288.89" x2="228.78" y2="536.96" xlink:href="#Degradado_sin_nombre_25"/>
    <linearGradient id="Degradado_sin_nombre_25-3" data-name="Degradado sin nombre 25" x1="343.93" y1="277.73" x2="364.36" y2="525.79" xlink:href="#Degradado_sin_nombre_25"/>
    <linearGradient id="Degradado_sin_nombre_25-4" data-name="Degradado sin nombre 25" x1="324.99" y1="279.29" x2="345.42" y2="527.35" xlink:href="#Degradado_sin_nombre_25"/>
    <linearGradient id="Degradado_sin_nombre_10" data-name="Degradado sin nombre 10" x1="237.79" y1="200.21" x2="429.8" y2="445.83" gradientUnits="userSpaceOnUse">
      <stop offset="0" stop-color="#fee179"/>
      <stop offset="1" stop-color="#f48e39"/>
    </linearGradient>
    <linearGradient id="Degradado_sin_nombre_37" data-name="Degradado sin nombre 37" x1="522.19" y1="180.4" x2="475.13" y2="552.63" gradientUnits="userSpaceOnUse">
      <stop offset="0" stop-color="#2fa27b"/>
      <stop offset=".47" stop-color="#ee7349"/>
      <stop offset="1" stop-color="#a01f58"/>
    </linearGradient>
    <linearGradient id="Degradado_sin_nombre_37-2" data-name="Degradado sin nombre 37" x1="505" y1="178.23" x2="457.94" y2="550.46" xlink:href="#Degradado_sin_nombre_37"/>
    <linearGradient id="Degradado_sin_nombre_25-5" data-name="Degradado sin nombre 25" x1="556.85" y1="184.78" x2="509.79" y2="557.01" xlink:href="#Degradado_sin_nombre_25"/>
    <linearGradient id="Degradado_sin_nombre_10-2" data-name="Degradado sin nombre 10" x1="610.32" y1="334.89" x2="480.63" y2="554.43" xlink:href="#Degradado_sin_nombre_10"/>
    <linearGradient id="Degradado_sin_nombre_2" data-name="Degradado sin nombre 2" x1="161.45" y1="145.49" x2="187.07" y2="227.37" gradientUnits="userSpaceOnUse">
      <stop offset="0" stop-color="#8db8ef"/>
      <stop offset=".73" stop-color="#5479bd"/>
      <stop offset="1" stop-color="#624f8f"/>
    </linearGradient>
    <linearGradient id="Degradado_sin_nombre_13" data-name="Degradado sin nombre 13" x1="185.53" y1="228.73" x2="181.62" y2="213.49" gradientUnits="userSpaceOnUse">
      <stop offset="0" stop-color="#5479bd"/>
      <stop offset="1" stop-color="#624f8f" stop-opacity="0"/>
    </linearGradient>
    <linearGradient id="Degradado_sin_nombre_80" data-name="Degradado sin nombre 80" x1="186.4" y1="229.03" x2="189.15" y2="237.51" gradientUnits="userSpaceOnUse">
      <stop offset="0" stop-color="#8db8ef"/>
      <stop offset=".39" stop-color="#5479bd"/>
      <stop offset="1" stop-color="#624f8f"/>
    </linearGradient>
    <filter id="drop-shadow-29" x="140.18" y="195.67" width="142.08" height="122.4" filterUnits="userSpaceOnUse">
      <feOffset dx="23.26" dy="23.26"/>
      <feGaussianBlur result="blur" stdDeviation="17.45"/>
      <feFlood flood-color="#000" flood-opacity=".4"/>
      <feComposite in2="blur" operator="in"/>
      <feComposite in="SourceGraphic"/>
    </filter>
  </defs>
  <g class="cls-14">
    <g id="BACKGROUND">
      <rect class="cls-11" x="-10" y="-10" width="2020" height="722.77"/>
    </g>
    <g id="TEXTS">
      <path class="cls-10" d="M279.81,533.91c-3.56-2.07-7.03-4.24-10.4-6.5-4.59-3.07-14.35-68.71-18.57-72.1-2.2-1.77,1.02,58.82-1.07,56.98-29.04-25.55-48.6-58.54-58.3-92.97-1-3.54,10.51-63.49,9.72-67.05-.84-3.79-13.96,48.8-14.56,45-5.73-36.17-.71-72.52,15.46-102.31,0,0,43.26-25.24,86.39,8.55,2.29,1.79-32.89.98-30.6,3.12,1.61,1.51,40.68,5.88,42.27,7.57,6.66,7.03,13.22,15.68,19.52,26.26,50.39,84.69,87.72,87.95,117.35,93.67,29.63,5.72,28.23,67.31,28.23,67.31l-140.44,42.69-44.98-10.2Z"/>
      <g class="cls-7">
        <path class="cls-9" d="M263.16,311.68c1.47,1.38,34.29,5.16,41.08,7.08-1.36-1.59-2.73-3.12-4.1-4.57-.85-.9-12.34-2.56-23.13-4.14-7.71.28-14.93.63-13.85,1.64Z"/>
        <path class="cls-9" d="M442.3,439.18c3.3.64,6.19,2,8.77,3.86-3.66-4.52-8.26-7.8-14.06-8.92-19.34-3.73-41.97-6.43-69.36-31.41,29.79,29.68,54.08,32.5,74.65,36.46Z"/>
        <path class="cls-9" d="M196.75,424.38c-1-3.54,10.51-63.49,9.72-67.05-.61-2.76-7.72,24.32-11.78,37.82-2.02,12.27-3.63,22.75-3.23,24.17,9.35,33.18,27.88,65,55.2,90.14-24.43-24.28-41.18-54.09-49.91-85.08Z"/>
        <path class="cls-9" d="M207.37,300.02s39.18-22.81,80.14,4.09c.88-.16,1.28-.36.97-.6-43.13-33.78-86.39-8.55-86.39-8.55-16.17,29.79-21.19,66.14-15.46,102.31.19,1.21,1.64-3.27,3.56-9.81-2.39-31.14,3.24-61.73,17.19-87.44Z"/>
        <path class="cls-9" d="M256.13,460.37c-.57-.46-.78,3.34-.8,9.15,4.69,20.42,10.75,55.66,14.09,57.89,1.22.82,2.52,1.56,3.77,2.35-4.96-12.92-13.25-66.35-17.05-69.4Z"/>
      </g>
      <path class="cls-1" d="M192.92,424.18c10.13,32.67,29.17,63.77,56.84,88.11,1.31,1.15.54-22.14.32-39.3-22.76-10.95-42.86-28.04-57.16-48.81Z"/>
      <path class="cls-5" d="M437.01,434.12c-3.1-.6-6.29-1.17-9.57-1.82-21.45,40.31-79.07,53.99-121.45,53.94-16.83-.02-33.56-3.71-49.23-10.28,4.43,20.62,9.66,49.44,12.66,51.45,3.37,2.26,6.83,4.43,10.4,6.5l44.98,10.2,140.44-42.69s1.4-61.59-28.23-67.31Z"/>
      <path class="cls-2" d="M462.74,472.55c-4.22-.42-8.41-1.09-12.62-1.6-6.37-.76-12.75-1.42-19.12-2.17-12.4-1.45-24.79-3.23-36.82-6.63-.96-.27-1.55-1.74-.65-2.44,1.62-1.26,3.37-2.34,5.09-3.46-17.26-2.55-34.85-3.71-50.82-11.38-.84-.4-.95-1.69-.3-2.3,3.87-3.59,9.71-2.79,14.69-3.75-2.16-2.27-5.52-3.67-8.21-4.84-3.77-1.63-7.66-2.94-11.5-4.39-3.74-1.42-7.26-3.21-10.77-5.14-9.53-5.27-18.78-11.56-26.33-19.47-.72-.75-.47-2.21.65-2.45,6.12-1.3,12.47.48,18.57-.56-5.35-8.16-14.5-13.64-22.12-19.36-8.75-6.57-17.73-14.59-22.78-24.45-.49-.96.1-2.22,1.26-2.2,2.71.05,5.38.55,8.08.58-3.33-7.04-10.88-11.64-17.16-15.69-7.21-4.65-15.16-9.22-20.09-16.47-.76-1.12.5-2.4,1.65-2.15.95.21,2.05-.2,3.13-.56-1.27-2.97-4.14-5.28-6.65-7.11-6.48-4.72-13.85-7.97-20.83-11.85-4.62-2.57-8.99-5.64-13.37-8.59-1.56-1.05-3.12-2.1-4.68-3.16-3.31,1.21-5.79,2.35-7.31,3.11.35,8.89,1.71,17.68,3.14,26.46.61,3.72,1.19,7.39,1.41,11.16.17,3.03.36,6.67,2.72,8.89.92.86,2.01,1.78,3.02,2.51,1.13.81,2.46,1.4,3.23,2.61,1.44,2.26,1.77,5.37,2.14,7.97.42,2.98.71,5.93,1.33,8.88.88,4.24,1.63,8.5,2.42,12.75,1.38,7.44,2.95,14.86,5.38,22.03,2-3.73,1.88-8.49,3.51-12.38.48-1.15,1.93-1.49,2.67-.35,6.2,9.44,8.93,20.61,13.1,30.99,2.32,5.77,5.48,11.18,8.67,16.5,2.61,4.35,5.43,8.57,8.4,12.68.37-3.14.39-6.31.39-9.48,0-1.02,1.28-1.94,2.2-1.26,4.49,3.3,7.57,7.97,10.39,12.7,2.61,4.37,5.21,8.59,8.28,12.65,3.43,4.53,6.88,9.05,10.47,13.45,6.84,8.38,14.23,16.51,22.98,22.94,1.11-2.76.65-6,.15-8.87-.6-3.47-1.54-6.94-1.59-10.48-.02-1.17,1.24-1.74,2.2-1.26,2.3,1.13,4.49,2.45,6.58,3.93,8.5,6.01,15.31,13.98,23.11,20.81,8.54,7.48,18.53,12.48,29.22,16.13,5.43,1.85,10.95,3.44,16.43,5.15.75.23,1.51.46,2.26.7l67.23-20.44s.31-13.76-2.49-28.87Z"/>
      <path class="cls-17" d="M200.09,232.31c11.83,41.96,29.38,82.38,51.21,120.1,47.15,81.63,121.32,148.72,220.26,148.88,38.95.25,77.28-9.19,113.35-23.66-38.09,17.27-79.61,28.97-121.74,28.92-97.88,1.06-176.84-65.91-226.87-144.91-23.78-37.1-43.18-77.02-57.46-118.72,0,0-.68-2.08-.68-2.08l-.69-2.2,22.62-6.32h0Z"/>
      <path class="cls-16" d="M657,450.33c-40.2,58.68-102.15,89.25-167.26,101.31-14.72,2.73-29.61,4.52-44.45,5.44-61.13,3.91-121.34-6.42-165.49-23.17,64.73-11.28,139.06-49.88,180.3-140.97,1.77-3.92,17.37,44.26,19.01,40.15,1.45-3.61-11.04-59.49-9.7-63.25.96-2.67,33.2,60.34,34.24,57.7,1.4-3.55-28.37-72.75-26.82-76.24,30.66-69.1,89.49-126.76,132.03-148.65,2.84-1.46,1.19,91,3.87,89.86,2.03-.86,8.42-95.38,10.34-96.04,7.93-2.74,14.93-3.81,20.6-2.98,32.05,4.66,80.11,91.81,45.21,193.97-1.34,3.93-42.14,35.14-43.74,39.11-1.63,4.06,35.94-19.12,34.04-15.03-5.97,12.83-13.31,25.8-22.21,38.8Z"/>
      <g class="cls-7">
        <path class="cls-9" d="M651.05,432.44c-1,2.49,12.79-5.29,23.13-10.72,1.77-3.4,3.46-6.8,5.03-10.19.62-1.33-2.92.22-7.92,2.76-9.97,8.29-19.49,16.26-20.25,18.14Z"/>
        <path class="cls-9" d="M509.55,433.42c1.4-3.55-28.36-72.75-26.82-76.24,29.55-66.61,85.28-122.58,127.36-146.13-.28-5.41-.66-8.68-1.21-8.4-42.54,21.89-101.38,79.55-132.03,148.65-1.35,3.05,21.17,56.21,25.97,71.99,3.75,6.55,6.43,10.86,6.72,10.13Z"/>
        <path class="cls-9" d="M628.98,202.34c7.93-2.74,14.93-3.81,20.6-2.98,5.41.79,11.28,3.98,17.13,9.14-7.73-8.68-15.78-13.97-23.01-15.02-5.67-.83-12.67.24-20.6,2.98-1.14.39-3.85,33.76-6.29,61.05.26,21.32,10.24-54.51,12.17-55.17Z"/>
        <path class="cls-9" d="M464.89,401.15c-2.37-5.65-4.23-9.41-4.78-8.2-41.24,91.09-115.58,129.69-180.3,140.97,4.16,1.58,8.5,3.08,12.93,4.54,62.44-12.69,132.21-51.16,172.15-137.3Z"/>
        <path class="cls-9" d="M485,438.97c1.29-3.22-8.53-48.14-9.68-60.37-3.32-5.77-5.65-9.45-5.89-8.76-1.11,3.12,7.27,42.04,9.35,57.31,3.05,7.6,5.61,13.35,6.23,11.81Z"/>
      </g>
      <path class="cls-3" d="M633.52,470.89c-20.09,10.64-56.68,18.81-70.55.31-30.58,39.63-93.62,73.37-132.37,27.45-9.04-10.71-13.93-23.48-15.65-36.98-40.04,43.12-89.93,64.36-135.15,72.24,44.15,16.76,104.35,27.08,165.49,23.17,14.84-.93,29.73-2.71,44.45-5.44,61.2-11.34,119.6-39.05,159.78-91.06-5,3.82-10.31,7.3-16,10.31Z"/>
      <path class="cls-4" d="M541.26,537.63c7.33-5.58,14.3-11.62,20.75-18.08,3.6-3.61,7.05-7.37,10.33-11.27,3.22-3.82,6.1-7.89,9.22-11.77,2.82-3.51,6.15-6.58,9.13-9.95,2.36-2.66,4.69-5.59,5.91-8.95-4.39.96-8.54,3.02-13.16,2.69-1-.07-1.59-.87-1.41-1.85,1.04-5.59,4.46-10.58,7.76-15.07,3.47-4.72,7.28-9.17,10.85-13.81,3.72-4.82,6.57-9.81,9.22-15.28,3.36-6.92,6.59-13.91,9.79-20.91,1.5-3.28,2.96-6.57,4.51-9.83,1.07-2.25,2.04-4.51,2.55-6.91-1.29.66-2.64,1.19-4.01,1.84-1.2.57-2.37-.36-2.15-1.65,1.92-11.33,2.83-22.87,2.49-34.35-.31-10.52-1.62-21.36-5.51-31.22-8.65,12.39-12.33,28.88-25.76,37.32-.88.55-1.81-.04-2.15-.87-.38-.94-.97-1.76-1.55-2.58-4.8,8.45-8.64,17.4-12.67,26.23-5.47,11.98-10.95,24.11-17.58,35.49-3.38,5.81-7.12,11.49-11.66,16.47-3.74,4.1-8.18,7.81-13.53,9.55-.45.15-1.12,0-1.42-.38-2.22-2.8-3.33-6.31-5.4-9.18-3.56,5.79-7.19,11.53-10.87,17.24-2.76,4.28-5.51,8.53-8.03,12.95-2.26,3.96-4.49,7.94-6.96,11.78-4.6,7.15-10.26,14.69-18.51,17.77-.59.22-1.36-.15-1.65-.67-1.86-3.29-3.49-6.77-5.91-9.69-4.22,4.31-8.26,8.8-12.17,13.4-7.05,8.27-14.1,16.57-20.01,25.7-1.78,2.76-3.95,6.38-7.34,7.31-3.46.96-6.48-1.53-8.72-4-4.15,3.66-6.08,9.44-8.19,14.37-1.24,2.89-2.61,5.81-4.44,8.36,10.68.16,21.46-.07,32.28-.76,14.84-.93,29.73-2.71,44.45-5.44,17.53-3.25,34.81-7.89,51.52-14.01Z"/>
      <path class="cls-15" d="M619.27,333.32c-17.61,83.37-61.19,166.39-129.52,218.32-14.72,2.73-29.61,4.52-44.45,5.44,81.25-39.98,134.77-122,162.84-206.29,2.02-6.2,3.95-12.51,5.56-18.77.38-1.47,1.82-2.39,3.31-2.1h0c1.56.31,2.58,1.83,2.25,3.39Z"/>
      <path class="cls-12" d="M196.8,179.19c-13.52-4.25-25.94-24.35-31.81-33.84-.22-.36-.72-.5-1.31-.49l10.02,34.99c.75,2.61,2.81,4.66,5.44,5.32,3.49.87,6.4,3.64,7.24,7.47,1.07,4.87-1.82,9.91-6.55,11.46-5.35,1.76-11.03-1.29-12.57-6.65-.99-3.47,0-7.03,2.3-9.47,1.89-2.01,2.64-4.83,1.88-7.48l-10.02-34.99c-.5.31-.85.69-.85,1.11.04,11.16.15,34.79-9.07,45.55-1.93,2.26-2.05,5.56-.1,7.8,6.32,7.29,17.15,17.55,22.85,37.48l13.61-3.9,13.61-3.9c-5.71-19.92-1.95-34.36-.45-43.89.46-2.94-1.38-5.67-4.22-6.56Z"/>
      <g class="cls-13">
        <path class="cls-9" d="M198.98,181.36c.47.15.9.36,1.31.6-.75-1.29-1.97-2.3-3.49-2.78-4.33-1.36-8.55-4.36-12.48-8.11,4.53,4.75,9.51,8.67,14.66,10.29Z"/>
        <path class="cls-9" d="M182.01,206.27c4.73-1.56,7.62-6.6,6.55-11.46-.54-2.48-1.96-4.49-3.83-5.86.77,1.06,1.35,2.3,1.65,3.68,1.07,4.87-1.82,9.91-6.55,11.46-3.15,1.03-6.39.37-8.86-1.42,2.44,3.35,6.82,4.98,11.03,3.59Z"/>
        <path class="cls-9" d="M176.86,184.1c-.42-.64-.77-1.32-.98-2.08l-10.02-34.99c.07,0,.13.02.2.03-.37-.6-.73-1.18-1.06-1.71-.22-.36-.72-.5-1.31-.49l10.02,34.99c.51,1.78,1.66,3.26,3.16,4.25Z"/>
        <path class="cls-9" d="M153.58,202.14c-1.95-2.25-1.83-5.55.1-7.8,8.87-10.36,9.11-32.59,9.08-44.2l-1.33-4.64c-.5.31-.85.69-.85,1.11.04,11.16.15,34.79-9.07,45.55-1.93,2.26-2.05,5.56-.1,7.8,6.32,7.29,17.15,17.55,22.85,37.48l1.38-.39c-5.87-18.23-16.02-27.94-22.05-34.9Z"/>
      </g>
      <path class="cls-8" d="M198.66,202.18c-7.31,6.54-16.84,10.61-27.11,10.61-3.59,0-7.08-.54-10.43-1.45,4.85,6.35,9.85,14.61,13.14,26.1l27.21-7.79c-3.07-10.72-3.39-19.83-2.81-27.47Z"/>
      <path class="cls-18" d="M202.77,234.3l-27.16,7.78c-2.57.74-5.24-.75-5.98-3.32h0c-.74-2.57.75-5.24,3.32-5.98l27.16-7.78c2.57-.74,5.24.75,5.98,3.32h0c.74,2.57-.75,5.24-3.32,5.98Z"/>
      <path class="cls-6" d="M171.16,239.67c-.74-2.57.75-5.24,3.32-5.98l27.16-7.78c1.03-.29,2.06-.22,2.99.12-1.2-1.05-2.88-1.5-4.52-1.03l-27.16,7.78c-2.57.74-4.05,3.41-3.32,5.98.44,1.54,1.59,2.68,2.99,3.19-.67-.59-1.19-1.37-1.46-2.29Z"/>
      <g>
        <path class="cls-9" d="M732.3,332.43l7.59-17.05c9.45,7.59,24.47,13,38.99,13,18.4,0,26.16-6.58,26.16-15.36,0-25.48-70.21-8.78-70.21-52.66,0-19.07,15.19-35.28,47.6-35.28,14.18,0,29.03,3.71,39.33,10.46l-6.92,17.05c-10.63-6.25-22.28-9.28-32.58-9.28-18.23,0-25.65,7.09-25.65,16.03,0,25.15,70.04,8.78,70.04,52.15,0,18.9-15.36,35.11-47.77,35.11-18.4,0-36.79-5.74-46.58-14.18Z"/>
        <path class="cls-9" d="M854.68,308.04c0-22.1,16.58-37.71,39.23-37.71s39.37,15.61,39.37,37.71-16.44,37.85-39.37,37.85-39.23-15.75-39.23-37.85ZM915.87,308.04c0-14.09-9.39-23.07-21.96-23.07s-21.82,8.98-21.82,23.07,9.39,23.07,21.82,23.07,21.96-8.98,21.96-23.07Z"/>
        <path class="cls-9" d="M1041.99,308.04c0,22.93-15.88,37.85-37.43,37.85-10.08,0-18.65-3.45-24.45-10.5v9.53h-16.44v-102.49h17.27v37.71c5.94-6.63,14.23-9.81,23.62-9.81,21.55,0,37.43,14.78,37.43,37.71ZM1024.45,308.04c0-14.09-9.39-23.07-21.82-23.07s-21.96,8.98-21.96,23.07,9.53,23.07,21.96,23.07,21.82-8.98,21.82-23.07Z"/>
        <path class="cls-9" d="M1144.9,302.65v42.27h-17.26v-40.06c0-13.12-6.49-19.48-17.54-19.48-12.29,0-20.58,7.46-20.58,22.24v37.29h-17.27v-102.49h17.27v37.3c5.66-6.08,14.37-9.39,24.59-9.39,17.68,0,30.8,10.08,30.8,32.32Z"/>
        <path class="cls-9" d="M1248.37,271.16l-34.53,79.7c-6.77,16.71-16.16,21.82-28.46,21.82-7.32,0-15.05-2.49-19.75-6.77l6.91-12.71c3.31,3.18,8.01,5.11,12.71,5.11,6.08,0,9.67-2.9,12.98-10.22l1.24-2.9-32.19-74.04h17.96l23.2,54.56,23.35-54.56h16.58Z"/>
        <path class="cls-9" d="M1277.49,226.77h51.65c38.31,0,64.47,23.63,64.47,59.07s-26.16,59.07-64.47,59.07h-51.65v-118.15ZM1328.13,326.35c26.33,0,43.38-16.04,43.38-40.51s-17.05-40.51-43.38-40.51h-28.69v81.02h28.69Z"/>
        <path class="cls-9" d="M1498.31,313.56h-57.88c2.07,10.78,11.05,17.68,23.9,17.68,8.29,0,14.78-2.62,20.03-8.01l9.26,10.64c-6.63,7.87-16.99,12.02-29.7,12.02-24.72,0-40.75-15.88-40.75-37.85s16.16-37.71,38.12-37.71,37.29,15.06,37.29,38.12c0,1.38-.14,3.45-.27,5.11ZM1440.29,302.1h41.86c-1.38-10.64-9.53-17.96-20.86-17.96s-19.34,7.18-21,17.96Z"/>
        <path class="cls-9" d="M1520.55,337.6l6.63-13.12c6.49,4.28,16.44,7.32,25.69,7.32,10.91,0,15.47-3.04,15.47-8.15,0-14.09-45.58-.83-45.58-30.25,0-13.95,12.57-23.07,32.46-23.07,9.81,0,21,2.35,27.62,6.36l-6.63,13.12c-7.05-4.14-14.09-5.53-21.13-5.53-10.5,0-15.47,3.45-15.47,8.29,0,14.92,45.58,1.66,45.58,30.53,0,13.81-12.71,22.79-33.43,22.79-12.29,0-24.59-3.59-31.22-8.29Z"/>
        <path class="cls-9" d="M1611.58,248.64c0-5.8,4.7-10.36,11.05-10.36s11.05,4.28,11.05,9.94c0,6.08-4.56,10.78-11.05,10.78s-11.05-4.56-11.05-10.36ZM1613.93,271.16h17.27v73.76h-17.27v-73.76Z"/>
        <path class="cls-9" d="M1740.88,271.16v62.57c0,26.8-13.95,38.95-39.78,38.95-13.81,0-27.49-3.59-35.91-10.5l7.74-12.98c6.49,5.39,16.99,8.84,27.21,8.84,16.3,0,23.48-7.46,23.48-22.38v-3.87c-6.08,6.63-14.78,9.81-24.73,9.81-21.13,0-37.29-14.37-37.29-35.78s16.16-35.5,37.29-35.5c10.36,0,19.48,3.32,25.56,10.64v-9.81h16.44ZM1723.89,305.83c0-12.43-9.4-20.86-22.38-20.86s-22.52,8.43-22.52,20.86,9.39,21.13,22.52,21.13,22.38-8.56,22.38-21.13Z"/>
        <path class="cls-9" d="M1850,302.65v42.27h-17.27v-40.06c0-13.12-6.49-19.48-17.54-19.48-12.29,0-20.58,7.46-20.58,22.24v37.29h-17.27v-73.76h16.44v9.53c5.66-6.77,14.64-10.36,25.42-10.36,17.68,0,30.8,10.08,30.8,32.32Z"/>
      </g>
      <g>
        <path class="cls-9" d="M866.31,428.91l-25.04,74.9h-11.23l-20.44-59.81-20.44,59.81h-11.45l-25.04-74.9h11.02l20.22,60.88,21.08-60.88h9.84l20.65,61.2,20.65-61.2h10.16Z"/>
        <path class="cls-9" d="M929.97,478.88h-46.01c1.28,9.95,9.31,16.58,20.54,16.58,6.63,0,12.2-2.25,16.37-6.85l5.67,6.63c-5.14,5.99-12.95,9.2-22.36,9.2-18.3,0-30.49-12.09-30.49-29s12.09-28.89,28.46-28.89,28.03,11.77,28.03,29.21c0,.86-.11,2.14-.21,3.1ZM883.97,471.49h36.38c-1.07-9.52-8.24-16.26-18.19-16.26s-17.12,6.63-18.19,16.26Z"/>
        <path class="cls-9" d="M1008.51,475.45c0,17.33-12.09,29-28.67,29-8.34,0-15.62-3.21-20.22-9.63v8.99h-9.84v-79.39h10.27v31.24c4.71-6.1,11.77-9.09,19.79-9.09,16.58,0,28.67,11.56,28.67,28.89ZM998.13,475.45c0-12.09-8.24-19.9-19.15-19.9s-19.04,7.81-19.04,19.9,8.24,20.01,19.04,20.01,19.15-7.92,19.15-20.01Z"/>
        <path class="cls-9" d="M1063.72,428.91h31.56c24.07,0,40.44,15.19,40.44,37.45s-16.37,37.45-40.44,37.45h-31.56v-74.9ZM1094.65,494.5c18.51,0,30.39-11.34,30.39-28.14s-11.88-28.14-30.39-28.14h-20.22v56.28h20.22Z"/>
        <path class="cls-9" d="M1206.99,478.88h-46.01c1.28,9.95,9.31,16.58,20.54,16.58,6.63,0,12.2-2.25,16.37-6.85l5.67,6.63c-5.14,5.99-12.95,9.2-22.36,9.2-18.3,0-30.49-12.09-30.49-29s12.09-28.89,28.46-28.89,28.03,11.77,28.03,29.21c0,.86-.11,2.14-.21,3.1ZM1160.99,471.49h36.38c-1.07-9.52-8.24-16.26-18.19-16.26s-17.12,6.63-18.19,16.26Z"/>
        <path class="cls-9" d="M1275.9,447.1l-24.82,56.71h-10.49l-24.82-56.71h10.7l19.47,45.47,19.9-45.47h10.06Z"/>
        <path class="cls-9" d="M1381.3,504.98l-9.95-9.95c-6.53,6.31-15.09,9.63-25.04,9.63-15.19,0-26.21-8.02-26.21-19.47,0-9.2,5.24-15.62,18.19-23-6.74-6.74-8.99-11.56-8.99-17.12,0-10.06,7.92-16.8,20.22-16.8,11.34,0,18.62,5.88,18.62,15.62,0,7.6-4.49,13.05-15.94,19.58l18.51,18.4c2.03-3.85,3.64-8.35,4.6-13.59l8.24,2.68c-1.28,6.63-3.53,12.41-6.53,17.12l10.06,10.06-5.78,6.85ZM1365.25,489.04l-21.29-21.19c-10.49,5.88-13.8,10.27-13.8,16.26,0,7.17,6.74,11.98,16.8,11.98,7.17,0,13.48-2.35,18.3-7.06ZM1338.82,444.85c0,3.85,1.5,6.63,7.6,12.84,9.84-5.56,13.05-8.99,13.05-13.7s-3.53-8.24-9.95-8.24c-6.74,0-10.7,3.75-10.7,9.09Z"/>
        <path class="cls-9" d="M1439.4,428.91h31.56c24.07,0,40.44,15.19,40.44,37.45s-16.37,37.45-40.44,37.45h-31.56v-74.9ZM1470.32,494.5c18.51,0,30.39-11.34,30.39-28.14s-11.88-28.14-30.39-28.14h-20.22v56.28h20.22Z"/>
        <path class="cls-9" d="M1582.67,478.88h-46.01c1.28,9.95,9.31,16.58,20.54,16.58,6.63,0,12.2-2.25,16.37-6.85l5.67,6.63c-5.14,5.99-12.95,9.2-22.36,9.2-18.3,0-30.49-12.09-30.49-29s12.09-28.89,28.46-28.89,28.03,11.77,28.03,29.21c0,.86-.11,2.14-.21,3.1ZM1536.66,471.49h36.38c-1.07-9.52-8.24-16.26-18.19-16.26s-17.12,6.63-18.19,16.26Z"/>
        <path class="cls-9" d="M1595.3,497.82l4.28-8.13c4.82,3.42,12.52,5.88,19.9,5.88,9.52,0,13.48-2.89,13.48-7.7,0-12.73-35.84-1.71-35.84-24.29,0-10.16,9.09-17.01,23.65-17.01,7.38,0,15.73,1.93,20.65,5.14l-4.39,8.13c-5.14-3.32-10.81-4.49-16.37-4.49-8.99,0-13.37,3.32-13.37,7.81,0,13.37,35.95,2.46,35.95,24.5,0,10.27-9.42,16.8-24.5,16.8-9.42,0-18.72-2.89-23.43-6.63Z"/>
        <path class="cls-9" d="M1659.6,429.55c0-3.74,3-6.74,6.95-6.74s6.96,2.89,6.96,6.53c0,3.85-2.89,6.85-6.96,6.85s-6.95-2.89-6.95-6.63ZM1661.42,447.1h10.27v56.71h-10.27v-56.71Z"/>
        <path class="cls-9" d="M1750.87,447.1v49c0,20.01-10.17,29.1-29.42,29.1-10.38,0-20.86-2.89-27.07-8.45l4.92-7.92c5.24,4.49,13.48,7.38,21.83,7.38,13.38,0,19.47-6.21,19.47-19.04v-4.49c-4.92,5.88-12.3,8.77-20.44,8.77-16.37,0-28.78-11.13-28.78-27.5s12.41-27.39,28.78-27.39c8.45,0,16.16,3.1,20.97,9.31v-8.77h9.74ZM1740.81,473.96c0-11.02-8.13-18.4-19.47-18.4s-19.58,7.38-19.58,18.4,8.13,18.51,19.58,18.51,19.47-7.6,19.47-18.51Z"/>
        <path class="cls-9" d="M1829.62,471.17v32.63h-10.27v-31.46c0-11.13-5.56-16.58-15.3-16.58-10.91,0-17.98,6.53-17.98,18.83v29.21h-10.27v-56.71h9.84v8.56c4.17-5.78,11.45-9.09,20.44-9.09,13.8,0,23.54,7.92,23.54,24.61Z"/>
      </g>
    </g>
  </g>
</svg>