<?xml version="1.0" encoding="UTF-8"?>
<svg id="Layer_1" xmlns="http://www.w3.org/2000/svg" version="1.1" viewBox="0 0 48 48">
  <!-- Generator: Adobe Illustrator 30.1.0, SVG Export Plug-In . SVG Version: 2.1.1 Build 136)  -->
  <defs>
    <style>
      .st0 {
        fill: #ff5757;
      }

      .st0, .st1, .st2, .st3 {
        stroke: #fff;
        stroke-width: .5px;
      }

      .st1 {
        fill: #ff05f2;
      }

      .st2 {
        fill: #00ba00;
      }

      .st3 {
        fill: #285aeb;
      }
    </style>
  </defs>
  <path class="st0" d="M18,25.9c-1.1,0-2-.9-2-2v-13.9c0-4.4,3.6-8,8-8s8,3.6,8,8v2c0,1.1-.9,2-2,2s-2-.9-2-2v-2c0-2.2-1.8-4-4-4s-4,1.8-4,4v13.9c0,1.1-.9,2-2,2Z"/>
  <path class="st2" d="M24,46c-4.4,0-8-3.6-8-8v-2c0-1.1.9-2,2-2s2,.9,2,2v2c0,2.2,1.8,4,4,4s4-1.8,4-4v-14c0-1.1.9-2,2-2s2,.9,2,2v14c0,4.4-3.6,8-8,8Z"/>
  <path class="st1" d="M24,32h-14c-4.4,0-8-3.6-8-8s3.6-8,8-8h2c1.1,0,2,.9,2,2s-.9,2-2,2h-2c-2.2,0-4,1.8-4,4s1.8,4,4,4h14c1.1,0,2,.9,2,2s-.9,2-2,2Z"/>
  <path class="st3" d="M38,32h-1.9c-1.1,0-2-.9-2-2s.9-2,2-2h1.9c2.2,0,4-1.8,4-4s-1.8-4-4-4h-14c-1.1,0-2-.9-2-2s.9-2,2-2h14c4.4,0,8,3.6,8,8s-3.6,8-8,8Z"/>
</svg>