<?xml version="1.0" encoding="UTF-8"?>
<svg id="Layer_1" xmlns="http://www.w3.org/2000/svg" version="1.1" viewBox="0 0 24 24">
  <!-- Generator: Adobe Illustrator 29.8.2, SVG Export Plug-In . SVG Version: 2.1.1 Build 3)  -->
  <defs>
    <style>
      .st0 {
        fill: #5f29a3;
        stroke: #fff;
        stroke-miterlimit: 10;
        stroke-width: .5px;
      }
    </style>
  </defs>
  <path class="st0" d="M6.8,1c.9,0,1.7.6,1.9,1.4h4.9c.4,0,.7.3.7.7v7.6h6.9c.3,0,.5.1.6.4.1.2.1.5,0,.7l-2.8,4.1c-.1.2-.3.3-.5.3s-.4,0-.6-.2l-1.2-1.2h-5.7c-.7,1.4-2,2.5-3.7,2.7v2.8h4.9c.3-.8,1-1.4,1.9-1.4s2.1.9,2.1,2.1-.9,2.1-2.1,2.1-1.7-.6-1.9-1.4h-5.6c-.2,0-.4,0-.5-.2,0-.1-.2-.3-.2-.5v-3.5c-2.3-.3-4.1-2.3-4.1-4.8s2.2-4.8,4.8-4.8,3.6,1.1,4.3,2.8h1.8V3.8h-4.2c-.3.8-1,1.4-1.9,1.4s-2.1-.9-2.1-2.1.9-2.1,2.1-2.1c0,0,.2,0,.2,0ZM6.8,2.4c-.4,0-.7.3-.7.7s.3.7.7.7.7-.3.7-.7-.3-.7-.7-.7ZM11.6,12v1.4h5.5c.2,0,.4,0,.5.2l.8.8,1.6-2.4h-8.4ZM6.8,9.2c-1.9,0-3.4,1.5-3.4,3.4s1.5,3.4,3.4,3.4,3.4-1.5,3.4-3.4-1.5-3.4-3.4-3.4ZM14.4,21.6c.4,0,.7-.3.7-.7s-.3-.7-.7-.7-.7.3-.7.7.3.7.7.7Z"/>
</svg>