<?xml version="1.0" encoding="UTF-8"?>
<svg id="Layer_1" xmlns="http://www.w3.org/2000/svg" version="1.1" xmlns:xlink="http://www.w3.org/1999/xlink" viewBox="0 0 24 24">
  <!-- Generator: Adobe Illustrator 29.8.2, SVG Export Plug-In . SVG Version: 2.1.1 Build 3)  -->
  <defs>
    <style>
      .st0 {
        fill: url(#radial-gradient);
      }

      .st0, .st1, .st2, .st3 {
        stroke-miterlimit: 10;
      }

      .st0, .st1, .st2, .st3, .st4, .st5 {
        stroke: #fff;
      }

      .st1 {
        stroke-width: 1.7px;
      }

      .st1, .st2, .st3 {
        fill: #fff;
      }

      .st2 {
        stroke-width: 1.4px;
      }

      .st4 {
        stroke-width: .2px;
      }

      .st4, .st5 {
        fill: none;
        stroke-linecap: round;
        stroke-linejoin: round;
      }

      .st5 {
        stroke-width: .4px;
      }
    </style>
    <radialGradient id="radial-gradient" cx="11.9" cy="12" fx="11.9" fy="12" r="10" gradientUnits="userSpaceOnUse">
      <stop offset="0" stop-color="#f49783"/>
      <stop offset="1" stop-color="#f4da83"/>
    </radialGradient>
  </defs>
  <path class="st0" d="M11,2c-.5,1.5.5,3,2.1,3-2.1,3.5,0,7,4.9,6.5,0,2.5,2.5,3,3.7,2.5h.1c-.9,4.6-5,8-9.8,8S2.3,17.5,2,12,7,2,11,2Z"/>
  <path class="st3" d="M6.5,10c-.3,0-.5-.2-.5-.5s.2-.5.5-.5.5.2.5.5-.2.5-.5.5Z"/>
  <path class="st3" d="M15.3,16.1c-.3,0-.5-.2-.5-.5s.2-.5.5-.5.5.2.5.5-.2.5-.5.5Z"/>
  <path class="st2" d="M9.3,6.7c-.4,0-.7-.3-.7-.7s.3-.7.7-.7.7.3.7.7-.3.7-.7.7Z"/>
  <path class="st1" d="M7.3,15.6c-.5,0-.8-.4-.8-.8s.4-.8.8-.8.8.4.8.8-.4.8-.8.8Z"/>
  <path class="st4" d="M20.5,4c-.3,0-.5-.2-.5-.5s.2-.5.5-.5.5.2.5.5-.2.5-.5.5Z"/>
  <path class="st5" d="M17.5,7.6c-.4,0-.7-.3-.7-.7s.3-.7.7-.7.7.3.7.7-.3.7-.7.7Z"/>
  <path class="st3" d="M12,19c-.6,0-1-.4-1-1s.4-1,1-1,1,.4,1,1-.4,1-1,1Z"/>
  <path class="st3" d="M21,9h0"/>
</svg>