<?xml version="1.0" encoding="UTF-8"?>
<svg id="Layer_1" xmlns="http://www.w3.org/2000/svg" version="1.1" xmlns:xlink="http://www.w3.org/1999/xlink" viewBox="0 0 48 48">
  <!-- Generator: Adobe Illustrator 30.1.0, SVG Export Plug-In . SVG Version: 2.1.1 Build 136)  -->
  <defs>
    <style>
      .st0 {
        fill: url(#linear-gradient2);
      }

      .st1 {
        fill: #fff;
      }

      .st2 {
        fill: url(#linear-gradient1);
      }

      .st3 {
        fill: url(#linear-gradient);
      }
    </style>
    <linearGradient id="linear-gradient" x1="1.9" y1="24.4" x2="44.1" y2="24.4" gradientTransform="translate(.3 -.5) rotate(-1.7)" gradientUnits="userSpaceOnUse">
      <stop offset="0" stop-color="#008aff"/>
      <stop offset="0" stop-color="#1480ff"/>
      <stop offset=".2" stop-color="#3870ff"/>
      <stop offset=".3" stop-color="#5563ff"/>
      <stop offset=".5" stop-color="#6c59ff"/>
      <stop offset=".6" stop-color="#7d51ff"/>
      <stop offset=".8" stop-color="#864dff"/>
      <stop offset="1" stop-color="#8a4cff"/>
    </linearGradient>
    <linearGradient id="linear-gradient1" x1="15.9" y1="42.1" x2="58.6" y2="42.1" gradientTransform="translate(-12.8 .3) rotate(-2.8) scale(.9 1)" gradientUnits="userSpaceOnUse">
      <stop offset="0" stop-color="#ffd727"/>
      <stop offset="1" stop-color="#ff6e3b"/>
    </linearGradient>
    <linearGradient id="linear-gradient2" x1="23.6" y1="45.7" x2="61.2" y2="45.7" gradientTransform="translate(-16.1 0) rotate(-1.7) scale(.8 1)" gradientUnits="userSpaceOnUse">
      <stop offset="0" stop-color="#008aff"/>
      <stop offset="1" stop-color="#8a4cff"/>
    </linearGradient>
  </defs>
  <g>
    <path class="st3" d="M3.6,45.7c0,0,0,0,0-.1,0,0,0-2.7.9-5.5,0,0,0,0,0,0,0,0,0,0,0,0s0,0,0,0c.1,0,.2,0,.3,0s.1,0,.2,0c.3,0,.5-.2.7-.4.2-.2.2-.5.1-.8,0-.3-.3-.6-.6-.7,0,0,0,0,0,0,0,0,0,0,0,0,.5-1,1-2,1.6-3l3.4-5.4s-1.5-6.6,3.5-11.9c0,0,0,0,0,0s0,0,0,0c0,0,0,0,0,.1,0,0-.4,2-.5,3.8.5-2.3,2-7.4,6.1-10.7,0,0,0,0,0,0s0,0,0,0c0,0,0,0,0,.1l-.2,1.2c.8-1.4,2.7-4.3,5.6-5.4,0,0,0,0,0,0,0,0,0,0,0,0,0,0,0,0,0,.1,0,0-.7,1.3-1.2,2.8.9-1.7,3-4.9,6.7-6.7,3.3-1.7,6.8-2,9.2-2s4.3.4,4.3.4c0,0,0,0,0,0,0,0,0,0,0,.1,0,0-2.7,6.2-8.5,8.3.7,0,1.6-.2,2.7-.6,0,0,0,0,0,0,0,0,0,0,0,0,0,0,0,0,0,.1,0,.1-1.9,3.2-8.4,5,.2,0,.5,0,.8,0,1.1,0,2.1-.1,3.1-.4,0,0,0,0,0,0,0,0,0,0,.1,0,0,0,0,0,0,.1,0,0-2.4,3.6-6.9,5.9.7,0,1.8-.2,2.9-.5,0,0,0,0,0,0,0,0,0,0,.1,0,0,0,0,.1,0,.1,0,0-2.8,3.1-8.7,4.8.9,0,2.3-.2,3.8-.6,0,0,0,0,0,0,0,0,0,0,.1,0,0,0,0,.1,0,.2,0,0-2.5,2.4-6.1,3.1.2,0,.4,0,.7,0,.4,0,.8,0,1.3,0,0,0,0,0,0,0,0,0,0,0,.1,0,0,0,0,0,0,.1,0,0-2.5,4.3-9.5,4.6h0s0,0-.1,0c0,0,0,0,0-.1,0-.2,6.4-16.2,23.7-26.2-5.7,2.9-17.9,10.8-26.5,28.2.6.2,1.1.4,1.5.7,0,0,0,0,0,.1,0,0-1.2,2.7-1.5,5.6,0,0,0,0,0,0,0,0-1.6.8-3.2,2.3-1.3,1.2-2.2,2.8-2.2,2.9,0,0,0,0-.1,0s0,0,0,0Z"/>
    <path class="st1" d="M40,1c2.6,0,4.3.4,4.3.4,0,0-2.9,6.8-9.4,8.5,0,0,0,0,.2,0,.5,0,1.8,0,3.5-.7,0,0-1.9,3.4-9,5.1,0,0,.6,0,1.5,0s1.9,0,3.1-.4c0,0-2.6,3.8-7.4,6.2,0,0,1.7,0,3.6-.5,0,0-3,3.4-9.7,5.1,0,0,0,0,.3,0,.7,0,2.5,0,4.6-.7,0,0-2.8,2.6-6.8,3.2,0,0,.5.2,1.4.2s.8,0,1.3,0c0,0-2.4,4.3-9.4,4.6,0,0,6.9-18,26.7-27.8,0,0-18.1,6-29.8,29.9.5.1,1.1.3,1.6.7,0,0-1.2,2.7-1.5,5.6,0,0-1.6.8-3.2,2.3-1.3,1.2-2.2,2.9-2.2,2.9,0,0,0-2.6.9-5.4.1,0,.3,0,.4,0s.2,0,.2,0c.6-.1,1-.7.9-1.4,0-.4-.4-.7-.7-.8.4-1,.9-2,1.6-3h0s3.4-5.4,3.4-5.4c0,0-1.6-6.6,3.5-11.9,0,0-.6,3-.4,5,0,0,.8-7.4,6.3-11.7l-.3,2s2.1-4.6,5.9-6.1c0,0-1.2,2.2-1.5,4,0,0,2-5.2,7.2-7.8,3.2-1.6,6.6-2,9.1-2M40,.8c-2.4,0-5.9.4-9.2,2-2.9,1.5-4.8,3.8-6,5.5.3-.8.7-1.4.7-1.4,0,0,0-.2,0-.3,0,0-.1,0-.2,0,0,0,0,0,0,0-2.6,1-4.4,3.4-5.3,4.9v-.4c0-.1,0-.2,0-.3,0,0,0,0-.1,0,0,0-.1,0-.2,0-3.4,2.7-5.1,6.7-5.8,9.3.1-1.2.4-2.3.4-2.3,0-.1,0-.2-.1-.3,0,0,0,0-.1,0,0,0-.1,0-.2,0-4.7,5-3.7,11.2-3.6,12l-3.3,5.3c-.6,1-1.2,2-1.6,3,0,0,0,.1,0,.2,0,0,0,.1.1.1.3.1.5.4.5.7,0,.2,0,.5-.1.7-.1.2-.3.3-.6.4,0,0-.1,0-.2,0-.1,0-.2,0-.3,0,0,0,0,0,0,0s0,0-.1,0c0,0-.1,0-.1.1-.9,2.8-.9,5.4-.9,5.5,0,.1,0,.2.2.2,0,0,0,0,0,0,0,0,.2,0,.2-.1,0,0,.9-1.7,2.2-2.8,1.6-1.5,3.2-2.3,3.2-2.3,0,0,.1-.1.1-.2.3-2.9,1.5-5.5,1.5-5.6,0-.1,0-.2,0-.3-.4-.3-.8-.6-1.4-.7,6.4-12.9,14.8-20.6,21-24.8-13.3,9.8-18.4,22.6-18.5,22.8,0,0,0,.2,0,.2,0,0,.1.1.2.1s0,0,0,0c7.1-.3,9.5-4.5,9.6-4.7,0,0,0-.2,0-.3,0,0-.1-.1-.2-.1,0,0,0,0,0,0-.4,0-.7,0-1,0,3.1-.9,5.2-2.8,5.3-2.9,0,0,.1-.2,0-.3,0,0-.1-.1-.2-.1,0,0,0,0,0,0-.9.3-1.8.4-2.6.5,5.2-1.7,7.5-4.4,7.6-4.5,0,0,0-.2,0-.3,0,0-.1-.1-.2-.1,0,0,0,0,0,0-.8.2-1.7.3-2.3.4,4.1-2.3,6.3-5.6,6.4-5.7,0,0,0-.2,0-.3,0,0-.1-.1-.2-.1,0,0,0,0,0,0-1,.2-2,.4-3,.4,5.9-1.8,7.6-4.7,7.7-4.9,0,0,0-.2,0-.3,0,0-.1,0-.2,0,0,0,0,0,0,0-.6.2-1.1.4-1.6.5,5.2-2.4,7.6-7.9,7.6-7.9,0,0,0-.1,0-.2,0,0,0-.1-.2-.1,0,0-1.8-.4-4.4-.4h0Z"/>
  </g>
  <g>
    <path class="st2" d="M3.8,46.5s0,0,0,0c0,0,0-.1,0-.2,0,0,4.4-7.1,14.1-7.1s.7,0,1.1,0c2,.1,3.8.3,5.5.5,1.9.2,3.8.4,5.5.4s.6,0,.9,0c4-.2,7.3-1.8,10.5-5.2,0,0,0,0,0,0s0,0,0,0c0,0,0,0,0,.1-1.5,4.1-4.7,6.9-9.1,7.9-.8.2-1.8.3-2.8.3-1.6,0-3.5-.2-5.5-.7-3.1-.7-5.6-1-7.9-1-5.1,0-8.3,1.7-12.4,4.9,0,0,0,0,0,0Z"/>
    <path class="st1" d="M41.4,35c-1.4,3.8-4.4,6.8-9,7.8-.8.2-1.8.3-2.8.3-1.7,0-3.6-.2-5.4-.6-3.1-.7-5.7-1-7.9-1-5.3,0-8.5,1.8-12.5,4.9,0,0,4.3-7.1,14-7.1.4,0,.7,0,1.1,0,4.3.2,7.9,1,11,1s.6,0,.9,0c3.9-.2,7.2-1.7,10.6-5.2M41.4,34.8c0,0-.1,0-.2,0-3.2,3.4-6.4,4.9-10.5,5.1-.3,0-.6,0-.9,0-1.7,0-3.5-.2-5.5-.4-1.7-.2-3.5-.4-5.5-.5-.4,0-.7,0-1.1,0-9.7,0-14.1,7.1-14.2,7.2,0,.1,0,.2,0,.3,0,0,.1,0,.2,0s.1,0,.2,0c4.1-3.2,7.2-4.9,12.3-4.9,2.2,0,4.8.3,7.8,1,1.9.4,3.8.7,5.5.7s2,0,2.9-.3c4.4-1,7.7-3.8,9.2-8,0-.1,0-.2-.1-.3,0,0,0,0-.1,0h0ZM41.4,35.3h0,0Z"/>
  </g>
  <g>
    <path class="st0" d="M27.3,47.1c-1.2,0-2.5-.2-3.9-.5-1.4-.3-2.7-.7-3.9-1-2.9-.8-5.2-1.4-7.4-1.4s-4.4.7-6.8,2.1c0,0,0,0,0,0,0,0,0,0,0,0,0,0,0-.1,0-.2,1.8-1.9,4.5-4.1,9.3-4.1s4.8.5,7.7,1.4c2.5.8,4.6,1.2,6.6,1.2,2.9,0,5.3-.9,7.7-2.8,0,0,0,0,0,0s0,0,0,0c0,0,0,0,0,.2,0,0-2.5,5.1-9.3,5.1Z"/>
    <path class="st1" d="M36.5,42h0M36.5,42s-2.4,5-9.2,5-2.4-.1-3.9-.5c-4.8-1.1-8.1-2.4-11.3-2.4s-4.3.6-6.9,2.2c2.1-2.3,4.8-4.1,9.2-4.1,2.1,0,4.6.4,7.7,1.4,2.6.9,4.8,1.2,6.6,1.2,3.5,0,5.8-1.3,7.7-2.9M36.5,41.8h0s0,0,0,0h0c0,0-.1,0-.2,0-2.3,1.9-4.7,2.8-7.6,2.8s-4.1-.4-6.5-1.2c-2.9-1-5.5-1.5-7.8-1.5-4.8,0-7.6,2.2-9.4,4.2,0,0,0,.2,0,.3,0,0,.1,0,.2,0s0,0,.1,0c2.4-1.5,4.4-2.1,6.7-2.1s4.5.6,7.4,1.4c1.2.3,2.5.7,3.9,1,1.4.3,2.7.5,3.9.5,6.6,0,9.2-4.7,9.4-5.1,0,0,0,0,0-.1,0-.1-.1-.2-.2-.2h0ZM36.5,42.3h0,0Z"/>
  </g>
</svg>