<?xml version="1.0" encoding="UTF-8"?>
<svg id="Layer_1" xmlns="http://www.w3.org/2000/svg" version="1.1" viewBox="0 0 200 200">
  <!-- Generator: Adobe Illustrator 30.1.0, SVG Export Plug-In . SVG Version: 2.1.1 Build 136)  -->
  <defs>
    <style>
      .st0 {
        fill: #ff9f04;
      }

      .st0, .st1, .st2, .st3, .st4, .st5, .st6, .st7, .st8, .st9, .st10, .st11 {
        stroke: #fff;
        stroke-miterlimit: 39.9;
        stroke-width: 2.7px;
      }

      .st1 {
        fill: #00ab5e;
      }

      .st2 {
        fill: #ff8398;
      }

      .st3 {
        fill: #005183;
      }

      .st4 {
        fill: #008adf;
      }

      .st5 {
        fill: #0065a3;
      }

      .st6 {
        fill: #ff4b00;
      }

      .st7 {
        fill: #ff4949;
      }

      .st8 {
        fill: #ffd400;
      }

      .st9 {
        fill: #ff9100;
      }

      .st10 {
        fill: #54e360;
      }

      .st11 {
        fill: #e80048;
      }
    </style>
  </defs>
  <g id="color-wheel-_x28_1_x29_">
    <path id="Shape" class="st2" d="M17.7,147.5c4.1,7.1,9.2,13.7,15.1,19.7,17.9,17.9,41.8,27.8,67.2,27.8s49.2-9.9,67.2-27.8,11-12.6,15.1-19.7c8.3-14.3,12.7-30.6,12.7-47.5s-4.4-33.2-12.7-47.5c-4.1-7.1-9.2-13.7-15.1-19.7C149.2,14.9,125.4,5,100,5s-49.2,9.9-67.2,27.8c-6,6-11,12.6-15.1,19.7-8.3,14.3-12.7,30.6-12.7,47.5s4.4,33.2,12.7,47.5ZM75.8,100c0-4.4,1.2-8.5,3.3-12.1,4.2-7.2,12-12.1,21-12.1s16.8,4.9,21,12.1c2.1,3.6,3.3,7.7,3.3,12.1s-1.2,8.5-3.3,12.1c-4.2,7.2-12,12.1-21,12.1s-16.8-4.9-21-12.1c-2.1-3.6-3.3-7.7-3.3-12.1Z"/>
    <path id="Shape1" data-name="Shape" class="st10" d="M100,159.6v35.4c25.4,0,49.2-9.9,67.2-27.8s11-12.6,15.1-19.7l-30.7-17.7c-10.3,17.8-29.6,29.8-51.6,29.8Z"/>
    <path id="Shape2" data-name="Shape" class="st4" d="M159.6,100c0,10.9-2.9,21-8,29.8l30.7,17.7c8.3-14.3,12.7-30.6,12.7-47.5s-4.4-33.2-12.7-47.5l-30.7,17.7c5.1,8.8,8,19,8,29.8Z"/>
    <path id="Shape3" data-name="Shape" class="st8" d="M48.4,129.8l-30.7,17.7c4.1,7.1,9.2,13.7,15.1,19.7,17.9,17.9,41.8,27.8,67.2,27.8v-35.4c-22.1,0-41.3-12-51.6-29.8Z"/>
    <path id="Shape4" data-name="Shape" class="st5" d="M151.6,70.2l30.7-17.7c-4.1-7.1-9.2-13.7-15.1-19.7C149.2,14.9,125.4,5,100,5v35.4c22.1,0,41.3,12,51.6,29.8Z"/>
    <path id="Shape5" data-name="Shape" class="st9" d="M17.7,147.5l30.7-17.7c-5.1-8.8-8-19-8-29.8s2.9-21,8-29.8l-30.7-17.7c-8.3,14.3-12.7,30.6-12.7,47.5s4.4,33.2,12.7,47.5Z"/>
    <path id="Shape6" data-name="Shape" class="st7" d="M100,40.4V5c-25.4,0-49.2,9.9-67.2,27.8-6,6-11,12.6-15.1,19.7l30.7,17.7c10.3-17.8,29.6-29.8,51.6-29.8Z"/>
    <path id="Shape7" data-name="Shape" class="st5" d="M124.2,100c0,4.4-1.2,8.5-3.3,12.1l30.7,17.7c5.1-8.8,8-19,8-29.8s-2.9-21-8-29.8l-30.7,17.7c2.1,3.6,3.3,7.7,3.3,12.1Z"/>
    <path id="Shape8" data-name="Shape" class="st3" d="M121,87.9l30.7-17.7c-10.3-17.8-29.6-29.8-51.6-29.8v35.4c9,0,16.8,4.9,21,12.1Z"/>
    <path id="Shape9" data-name="Shape" class="st1" d="M100,124.2v35.4c22.1,0,41.3-12,51.6-29.8l-30.7-17.7c-4.2,7.2-12,12.1-21,12.1Z"/>
    <path id="Shape10" data-name="Shape" class="st0" d="M100,159.6v-35.4c-9,0-16.8-4.9-21-12.1l-30.7,17.7c10.3,17.8,29.6,29.8,51.6,29.8Z"/>
    <path id="Shape11" data-name="Shape" class="st6" d="M75.8,100c0-4.4,1.2-8.5,3.3-12.1l-30.7-17.7c-5.1,8.8-8,19-8,29.8s2.9,21,8,29.8l30.7-17.7c-2.1-3.6-3.3-7.7-3.3-12.1Z"/>
    <path id="Shape12" data-name="Shape" class="st11" d="M100,75.8v-35.4c-22.1,0-41.3,12-51.6,29.8l30.7,17.7c4.2-7.2,12-12.1,21-12.1Z"/>
  </g>
</svg>