<!-- Instagram Comment Icon SVG -->
<svg width="24" height="24" viewBox="0 0 24 24" fill="none" xmlns="http://www.w3.org/2000/svg">
<mask id="path-1-outside-1_7_48" maskUnits="userSpaceOnUse" x="-0.670044" y="-0.67004" width="24" height="24" fill="black">
<rect fill="white" x="-0.670044" y="-0.67004" width="24" height="24"/>
<path d="M11.6571 2.32996C16.808 2.33014 20.9833 6.50617 20.9833 11.6571C20.9832 14.0386 20.089 16.21 18.62 17.8583L19.121 20.1942L16.496 19.6307C15.0852 20.4888 13.429 20.9832 11.6571 20.9833C6.50616 20.9833 2.33014 16.808 2.32996 11.6571C2.32996 6.50605 6.50605 2.32996 11.6571 2.32996Z"/>
</mask>
<path d="M11.6571 2.32996L11.6572 -7.15256e-07H11.6571V2.32996ZM20.9833 11.6571L23.3132 11.6572V11.6571H20.9833ZM18.62 17.8583L16.8806 16.3081L16.0939 17.1908L16.3418 18.3469L18.62 17.8583ZM19.121 20.1942L18.632 22.4723L22.1547 23.2285L21.3991 19.7056L19.121 20.1942ZM16.496 19.6307L16.985 17.3527L16.0779 17.158L15.2853 17.64L16.496 19.6307ZM11.6571 20.9833L11.6571 23.3132L11.6572 23.3132L11.6571 20.9833ZM2.32996 11.6571L-4.53141e-06 11.6571L-4.52849e-06 11.6572L2.32996 11.6571ZM11.6571 2.32996L11.657 4.65992C15.5209 4.66006 18.6533 7.79273 18.6533 11.6571H20.9833H23.3132C23.3132 5.2196 18.0951 0.00022732 11.6572 -7.13794e-07L11.6571 2.32996ZM20.9833 11.6571L18.6533 11.657C18.6533 13.4437 17.985 15.0689 16.8806 16.3081L18.62 17.8583L20.3594 19.4085C22.193 17.3512 23.3131 14.6336 23.3132 11.6572L20.9833 11.6571ZM18.62 17.8583L16.3418 18.3469L16.8428 20.6828L19.121 20.1942L21.3991 19.7056L20.8982 17.3697L18.62 17.8583ZM19.121 20.1942L19.61 17.9162L16.985 17.3527L16.496 19.6307L16.007 21.9088L18.632 22.4723L19.121 20.1942ZM16.496 19.6307L15.2853 17.64C14.2286 18.2826 12.9896 18.6533 11.657 18.6533L11.6571 20.9833L11.6572 23.3132C13.8684 23.3132 15.9417 22.6949 17.7067 21.6214L16.496 19.6307ZM11.6571 20.9833V18.6533C7.79273 18.6533 4.66005 15.521 4.65992 11.657L2.32996 11.6571L-4.52849e-06 11.6572C0.00022351 18.0951 5.2196 23.3132 11.6571 23.3132V20.9833ZM2.32996 11.6571H4.65992C4.65992 7.79285 7.79285 4.65992 11.6571 4.65992V2.32996V-7.15256e-07C5.21925 -7.15256e-07 -4.52995e-06 5.21925 -4.52995e-06 11.6571H2.32996Z" fill="black" mask="url(#path-1-outside-1_7_48)"/>
</svg>