<?xml version="1.0" encoding="UTF-8"?>
<svg id="Layer_1" xmlns="http://www.w3.org/2000/svg" width="24" height="24" version="1.1" xmlns:xlink="http://www.w3.org/1999/xlink" viewBox="0 0 24 24">
  <!-- Generator: Adobe Illustrator 29.8.2, SVG Export Plug-In . SVG Version: 2.1.1 Build 3)  -->
  <defs>
    <mask id="mask" x="-.3" y="-.3" width="24" height="24" maskUnits="userSpaceOnUse">
      <g id="path-1-outside-1_7_48">
        <rect x="-.3" y="-.3" width="24" height="24" style="fill: #fff;"/>
        <path d="M12,2.7c5.2,0,9.3,4.2,9.3,9.3,0,2.4-.9,4.6-2.4,6.2l.5,2.3-2.6-.6c-1.4.9-3.1,1.4-4.8,1.4-5.2,0-9.3-4.2-9.3-9.3C2.7,6.8,6.8,2.7,12,2.7Z"/>
      </g>
    </mask>
  </defs>
  <g style="mask: url(#mask);">
    <path d="M12,2.7V.3s0,0,0,0v2.3ZM21.3,12h2.3s0,0,0,0h-2.3ZM19,18.2l-1.7-1.6-.8.9.2,1.2,2.3-.5ZM19.5,20.5l-.5,2.3,3.5.8-.8-3.5-2.3.5ZM16.8,20l.5-2.3-.9-.2-.8.5,1.2,2ZM12,21.3v2.3h0v-2.3ZM2.7,12H.3h0s2.3,0,2.3,0ZM12,2.7v2.3c3.9,0,7,3.1,7,7h4.7C23.7,5.6,18.4.3,12,.3v2.3ZM21.3,12h-2.3c0,1.8-.7,3.4-1.8,4.7l1.7,1.6,1.7,1.6c1.8-2.1,3-4.8,3-7.8h-2.3ZM19,18.2l-2.3.5.5,2.3,2.3-.5,2.3-.5-.5-2.3-2.3.5ZM19.5,20.5l.5-2.3-2.6-.6-.5,2.3-.5,2.3,2.6.6.5-2.3ZM16.8,20l-1.2-2c-1.1.6-2.3,1-3.6,1v2.3s0,2.3,0,2.3c2.2,0,4.3-.6,6-1.7l-1.2-2ZM12,21.3v-2.3c-3.9,0-7-3.1-7-7h-2.3s-2.3,0-2.3,0c0,6.4,5.2,11.7,11.7,11.7v-2.3ZM2.7,12h2.3c0-3.9,3.1-7,7-7V.3C5.6.3.3,5.6.3,12h2.3Z" style="fill: gray;"/>
  </g>
</svg>