<?xml version="1.0" encoding="UTF-8"?>
<svg id="Layer_1" xmlns="http://www.w3.org/2000/svg" width="69" height="33" version="1.1" viewBox="0 0 69 33">
  <!-- Generator: Adobe Illustrator 29.8.2, SVG Export Plug-In . SVG Version: 2.1.1 Build 3)  -->
  <path d="M21.5,5.3c0-.2-.6-1-.5-1.2.8-.2,2.9-.8,3.2.3-.1,3.8-.7,7.9-.4,11.7s.2,1,.3,1.5c1.6-.3,1.2-3.1,1.5-4.4.6-3.3,2-5.1,5.4-3.2s.7,2.2,1.1,3.2.4.3.5.4c.5.6,0,1,0,1.6s0,2.5.3,2.8c1.3-.5.9-2.7,1-3.9s.9-5,3-4.8,2.7.9,3,1.2c.8.8.5,1.9.4,2.9,1.6.3.6,1.1.5,2.2s0,2.4,0,3.5c1.5-.1,1.5,1.6,0,1.4-.1,1.9.5,7.1-1.2,8.3s-3.3.3-4.1-.4c-1.9-1.8.3-6.1,1.7-7.7s1.3-.8,1-1.1c-1,1.3-3.6.8-3.9-.8h-.2c-.9,1.3-2.6,1-3.3-.3-1,2.3-3.9,2.5-4.8.2h-.2c-.7.8-2,1-3,.4s-.6-.8-.8-.8c-.6,2.2-2.8,2.1-4.2.6-1.3,1.6-3.8,1.6-4.6-.4s-.6-10.8.3-13.4.6-1.3,1.7-1.3,1.8,1.4,1.9,2.4c.3,2.7-.2,6.4-1.1,8.9s-1.2,1.4-.6,2.9.2.4.4.6h.5c.3-.5.5-.7,1.1-.7-.4-1.8-.1-3.7.5-5.4s1.6-2.9,3.9-2.3c-.2-1.5.2-3.5,0-4.9ZM14.8,12.7c.3-1.6.6-3.5.5-5.1s0-.5-.2-.7c-.3,1.7-.5,3.5-.4,5.3s-.1.6.2.5ZM37.3,11.5c-1.6.3-1.7,4.6-1.5,5.8.2,1.8,1.2,1,1.7-.2s.7-2.8.8-3.9,0-1.6-.6-1.8c-.1,0-.3,0-.4,0ZM29,11.7c-.8.2-1.3,2.7-1.4,3.5s-.1,3.5.7,3.5c1.3,0,1.4-3.8,1.5-4.8s.8-1.6-.3-2.3c-.2,0-.4,0-.6,0ZM20.6,12c-1,.3-2,5.8-1,6.7.8.2,1.5-3.7,1.6-4.3s.1-1.4.2-2l-.3-.3c-.2,0-.3-.1-.5,0ZM38.1,21.7c-1.1.8-2.4,4.5-1.6,5.6s1.6-1.1,1.6-1.6v-4Z"/>
  <path d="M58.4,13.7l1.1-1.6c.5-.2,1.9,0,2.1.4l.3,2.3c.2-.6,1.1-3.3,1.4-3.5.7-.4,2.3.2,2.7,1s0,.8-.2,1.5c-.3,1.5-.4,3.1,0,4.6,1.5,0,.8-3.6,2.4-3.1s.1,1.6,0,2c-1.3,4.9-5.6,3.2-5.1-1.3-1.1.9-.4,3.6-1.8,3.7s-1.9-1.5-2-2.8c-.2,0-.3,2.5-.4,2.9-.2.8-3.3.5-2.8-.8-.8.8-2,1.2-2.9.3-.8-1.4-.8,0-1.5.7-1.1,1-3.2.4-3.8-.8-.1,0-.8,1-1.1,1.1-3.4,1-3.3-5-3-7-.4,0-.3,0-.4.3-.2.8-.3,3.9-1.2,4.2-1.4.4-.6-1.8-.5-2.6s0-2.2,0-3.3-.5-1.3.6-1.8,1.6.1,1.5,1.4c.6,0,2.5.1,2.7.7s-.2,1.2-.3,1.8c-.3,1.6-.6,3.1,0,4.7.4.3.9-1.3,1-1.6.6-2.1.2-7.4,3.2-7.8s2.9.7,3.3,1.3c.6.9.3,1.8.5,2.6s.5.4.6.8-.3,1-.3,1.4,0,2.7.5,2.7c1.5-.7.9-7.4,1.2-7.7.8-.1,1.6,0,2.3.3v3ZM49.9,18.7c1.8,0,1.5-3.1,1.8-4.4s.8-1.2.2-2.3-1-.5-1.4,0c-1.1,1.2-1.1,5.2-.5,6.7Z"/>
  <path d="M5.2,5.1c7-.7,9.4,10.5,3.9,14.2C-.3,23.9-2.4,7.3,5.2,5.1ZM3.2,11.5c0,1.1-.6,3,.4,4.7s4.4,2.6,5.5,0,.7-8.2-1.9-9c-4.4-.9-1.5,7.3,1.7,3.5,1.1,4-4.2,2.7-5.8.8Z"/>
</svg>