<?xml version="1.0" encoding="UTF-8"?>
<svg id="Layer_1" xmlns="http://www.w3.org/2000/svg" version="1.1" viewBox="0 0 24 24">
  <!-- Generator: Adobe Illustrator 30.0.0, SVG Export Plug-In . SVG Version: 2.1.1 Build 123)  -->
  <defs>
    <style>
      .st0 {
        fill: #fff;
        stroke: #000;
        stroke-miterlimit: 10;
        stroke-width: .5px;
      }
    </style>
  </defs>
  <path class="st0" d="M20,23h-2c-1.7,0-3-1.3-3-3v-6c0-1.7,1.3-3,3-3h2c1.7,0,3,1.3,3,3v6c0,1.7-1.3,3-3,3ZM18,13c-.6,0-1,.4-1,1v6c0,.6.4,1,1,1h2c.6,0,1-.4,1-1v-6c0-.6-.4-1-1-1h-2Z"/>
  <path class="st0" d="M16,3H4c-1.7,0-3,1.3-3,3v7c0,1.7,1.3,3,3,3h5v2h-2c-.6,0-1,.4-1,1s.4,1,1,1h5c.6,0,1-.4,1-1s-.4-1-1-1h-1v-2h1c.6,0,1-.4,1-1s-.4-1-1-1H4c-.6,0-1-.4-1-1v-7c0-.6.4-1,1-1h12c.6,0,1,.4,1,1v2c0,.6.4,1,1,1s1-.4,1-1v-2c0-1.7-1.3-3-3-3Z"/>
</svg>