<?xml version="1.0" encoding="utf-8"?>
<!-- Uploaded to: SVG Repo, www.svgrepo.com, Generator: SVG Repo Mixer Tools -->
<svg width="800px" height="800px" viewBox="0 0 1024 1024" class="icon"  version="1.1" xmlns="http://www.w3.org/2000/svg"><path d="M563.2 723.2s85.333333-55.466667 102.4-64c17.066667-8.533333 36.266667-12.8 46.933333-4.266667 17.066667 10.666667 160 104.533333 172.8 113.066667 12.8 8.533333 17.066667 32 2.133334 55.466667-17.066667 23.466667-91.733333 117.333333-123.733334 115.2-32 0-179.2 8.533333-433.066666-243.2C76.8 441.6 85.333333 294.4 85.333333 262.4s91.733333-108.8 115.2-123.733333c23.466667-17.066667 46.933333-10.666667 55.466667 2.133333 8.533333 12.8 102.4 155.733333 113.066667 172.8 6.4 10.666667 4.266667 29.866667-4.266667 46.933333-8.533333 17.066667-64 102.4-64 102.4s14.933333 59.733333 106.666667 153.6c93.866667 91.733333 155.733333 106.666667 155.733333 106.666667z" fill="#2196F3" /><path d="M746.666667 192H533.333333v85.333333h213.333334c23.466667 0 42.666667 19.2 42.666666 42.666667v213.333333h85.333334V320c0-70.4-57.6-128-128-128z" fill="#3F51B5" /><path d="M597.333333 341.333333l-142.933333-106.666666L597.333333 128z" fill="#3F51B5" /></svg>