<?xml version="1.0" encoding="UTF-8"?>
<svg id="Layer_1" xmlns="http://www.w3.org/2000/svg" version="1.1" viewBox="0 0 25 24">
  <!-- Generator: Adobe Illustrator 29.8.2, SVG Export Plug-In . SVG Version: 2.1.1 Build 3)  -->
  <defs>
    <style>
      .st0 {
        fill: #fff;
        fill-rule: evenodd;
      }

      .st1 {
        fill: none;
        stroke: #fff;
        stroke-linecap: round;
        stroke-miterlimit: 10;
        stroke-width: 1.5px;
      }
    </style>
  </defs>
  <path class="st1" d="M12.5,21.2c5.1,0,9.2-4.1,9.2-9.2S17.6,2.8,12.5,2.8,3.2,6.9,3.2,12s4.1,9.2,9.2,9.2Z"/>
  <path class="st0" d="M11.2,8.2c0,.7.6,1.2,1.2,1.2s1.2-.6,1.2-1.2-.6-1.2-1.2-1.2-1.2.6-1.2,1.2"/>
  <path class="st0" d="M13.5,12c0-.6-.4-1-1-1s-1,.4-1,1v4c0,.6.4,1,1,1s1-.4,1-1v-4Z"/>
</svg>