<?xml version="1.0" encoding="UTF-8"?>
<svg id="Layer_1" xmlns="http://www.w3.org/2000/svg" version="1.1" viewBox="0 0 25 24">
  <!-- Generator: Adobe Illustrator 29.8.2, SVG Export Plug-In . SVG Version: 2.1.1 Build 3)  -->
  <defs>
    <style>
      .st0 {
        stroke-miterlimit: 10;
      }

      .st0, .st1, .st2 {
        fill: none;
      }

      .st0, .st2 {
        stroke: #fff;
      }

      .st3 {
        fill: #fff;
        fill-rule: evenodd;
      }

      .st2 {
        stroke-linecap: round;
        stroke-linejoin: round;
        stroke-width: 2px;
      }
    </style>
  </defs>
  <path class="st0" d="M18.8,3.8H6.2c-.6,0-1,.4-1,1v15.5c0,.6.4,1,1,1h12.5c.6,0,1-.4,1-1V4.8c0-.6-.4-1-1-1"/>
  <rect class="st1" x="9.5" y="3.9" width="6" height="2"/>
  <path class="st3" d="M8.5,10c-.6,0-1,.4-1,1s.4,1,1,1h8c.6,0,1-.4,1-1s-.4-1-1-1h-8Z"/>
  <path class="st3" d="M8.5,14c-.6,0-1,.4-1,1s.4,1,1,1h8c.6,0,1-.4,1-1s-.4-1-1-1h-8Z"/>
  <path class="st3" d="M7.5,19c0-.6.4-1,1-1h4c.6,0,1,.4,1,1s-.4,1-1,1h-4c-.6,0-1-.4-1-1"/>
  <path class="st2" d="M16.5,2.9h-8v4h8V2.9Z"/>
</svg>