<?xml version="1.0" encoding="UTF-8"?>
<svg id="Layer_1" xmlns="http://www.w3.org/2000/svg" version="1.1" viewBox="0 0 255 255">
  <!-- Generator: Adobe Illustrator 30.0.0, SVG Export Plug-In . SVG Version: 2.1.1 Build 123)  -->
  <defs>
    <style>
      .st0 {
        fill: #fff;
      }

      .st1 {
        fill: #2a2537;
      }

      .st2 {
        fill: #fdddb4;
      }

      .st3 {
        fill: #c7b9ff;
      }

      .st4 {
        fill: #ddeae1;
      }
    </style>
  </defs>
  <g>
    <path class="st1" d="M127.5,249.8c-67.4,0-122.3-54.9-122.3-122.3S60.1,5.2,127.5,5.2s122.3,54.9,122.3,122.3-54.9,122.3-122.3,122.3Z"/>
    <path class="st0" d="M127.5,9.7c65.1,0,117.8,52.7,117.8,117.8s-52.7,117.8-117.8,117.8S9.7,192.6,9.7,127.5,62.4,9.7,127.5,9.7M127.5.7C93.6.7,61.8,13.9,37.8,37.8,13.9,61.8.7,93.6.7,127.5s13.2,65.7,37.1,89.7c23.9,23.9,55.8,37.1,89.7,37.1s65.7-13.2,89.7-37.1c23.9-23.9,37.1-55.8,37.1-89.7s-13.2-65.7-37.1-89.7C193.2,13.9,161.4.7,127.5.7h0Z"/>
  </g>
  <g>
    <rect class="st3" x="122.4" y="86.5" width="74.9" height="25.7" rx="11.1" ry="11.1"/>
    <rect class="st2" x="92.2" y="142.9" width="76.2" height="25.7" rx="11.2" ry="11.2"/>
    <rect class="st4" x="122.4" y="116.7" width="44.6" height="21.7" rx="7.9" ry="7.9"/>
    <rect class="st2" x="57.7" y="142.9" width="27.3" height="25.7" rx="9.8" ry="9.8"/>
  </g>
</svg>