<?xml version="1.0" encoding="UTF-8"?>
<svg id="Layer_1" xmlns="http://www.w3.org/2000/svg" version="1.1" xmlns:xlink="http://www.w3.org/1999/xlink" viewBox="0 0 24 24">
  <!-- Generator: Adobe Illustrator 30.0.0, SVG Export Plug-In . SVG Version: 2.1.1 Build 123)  -->
  <defs>
    <style>
      .st0 {
        fill: url(#radial-gradient3);
      }

      .st0, .st1, .st2, .st3 {
        stroke: #fff;
        stroke-miterlimit: 10;
      }

      .st0, .st2 {
        stroke-width: .3px;
      }

      .st1 {
        fill: url(#radial-gradient);
      }

      .st1, .st3 {
        stroke-width: .5px;
      }

      .st2 {
        fill: url(#radial-gradient2);
      }

      .st3 {
        fill: url(#radial-gradient1);
      }
    </style>
    <radialGradient id="radial-gradient" cx="19" cy="242" fx="19" fy="242" r="5.7" gradientTransform="translate(0 -230)" gradientUnits="userSpaceOnUse">
      <stop offset=".4" stop-color="#1d4ed8"/>
      <stop offset="1" stop-color="#8a091a"/>
    </radialGradient>
    <radialGradient id="radial-gradient1" cx="5" cy="242" fx="5" fy="242" r="5.7" gradientTransform="translate(0 -230)" gradientUnits="userSpaceOnUse">
      <stop offset=".4" stop-color="#1d4ed8"/>
      <stop offset="1" stop-color="#8a091a"/>
    </radialGradient>
    <radialGradient id="radial-gradient2" cx="15.2" cy="12.1" fx="15.2" fy="12.1" r="3.2" gradientTransform="translate(0 25) scale(1 -1)" gradientUnits="userSpaceOnUse">
      <stop offset=".4" stop-color="#1d4ed8"/>
      <stop offset="1" stop-color="#8a091a"/>
    </radialGradient>
    <radialGradient id="radial-gradient3" cx="9" cy="12" fx="9" fy="12" r="3.2" gradientTransform="translate(0 25) scale(1 -1)" gradientUnits="userSpaceOnUse">
      <stop offset=".4" stop-color="#1d4ed8"/>
      <stop offset="1" stop-color="#8a091a"/>
    </radialGradient>
  </defs>
  <path class="st1" d="M15.3,18.7c-.4-.4-.4-1,0-1.4l5.3-5.3-5.3-5.3c-.4-.4-.4-1,0-1.4s1-.4,1.4,0l6,6c.4.4.4,1,0,1.4l-6,6c-.3.3-1.2.3-1.4,0Z"/>
  <path class="st3" d="M7.3,18.7L1.3,12.7c-.4-.4-.4-1,0-1.4l6-6c.4-.4,1-.4,1.4,0s.4,1,0,1.4l-5.3,5.3,5.3,5.3c.4.4.4,1,0,1.4s-1.1.3-1.4,0Z"/>
  <path class="st2" d="M13.2,15.7c-.2-.2-.2-.6,0-.8l2.9-2.9-2.9-2.9c-.2-.2-.2-.6,0-.8s.6-.2.8,0l3.3,3.3c.2.2.2.6,0,.8,0,0-2.3,2.4-3.2,3.2s-.7.4-.9.1Z"/>
  <path class="st0" d="M10.3,15.7l-3.3-3.3c-.2-.2-.2-.6,0-.8l3.3-3.3c.2-.2.6-.2.8,0s.2.6,0,.8l-2.9,2.9,2.9,2.9c.2.2.2.6,0,.8s-.7.1-.8,0Z"/>
</svg>